<svg width="42" height="25" viewBox="0 0 42 25" fill="none" xmlns="http://www.w3.org/2000/svg">
<g clip-path="url(#clip0_5719_223580)">
<path d="M0.579102 12.255V1.00281H2.67576L8.1855 8.01008H8.33526V1H10.7314V12.2521H8.66024L3.12805 5.21111H2.97828V12.255H0.579102Z" fill="black"/>
<path d="M20.7308 12.256H12.7935V1.00391H20.7308V3.01382H15.299V5.64119H20.4238V7.50624H15.299V10.2433H20.7308V12.256Z" fill="black"/>
<path d="M25.4288 12.255V3.01273H21.8345V1H31.527V3.01273H27.9328V12.255H25.4288Z" fill="black"/>
<path d="M0.579102 21.952V14.3694H4.10898C4.46332 14.3652 4.81644 14.4093 5.15731 14.5002C5.44202 14.5772 5.7084 14.7047 5.94206 14.8758C6.15351 15.0347 6.32228 15.238 6.43479 15.4693C6.55216 15.7185 6.61041 15.9887 6.60552 16.2612C6.60608 16.4578 6.568 16.6528 6.4932 16.8364C6.42455 17.0152 6.32319 17.1813 6.19367 17.3273C6.06158 17.4718 5.90465 17.5944 5.72941 17.6902C5.55202 17.7875 5.3562 17.8515 5.15283 17.8787V17.9743C5.41204 17.9878 5.66615 18.0475 5.90163 18.1501C6.12002 18.2448 6.31799 18.3764 6.4857 18.5383C6.65178 18.7003 6.78208 18.8915 6.86909 19.1009C6.96199 19.3192 7.00879 19.5523 7.00688 19.7873C7.01186 20.0969 6.94597 20.4039 6.81368 20.6875C6.68737 20.9531 6.49657 21.1872 6.25657 21.3711C5.99556 21.5675 5.69652 21.7146 5.37597 21.8043C4.99954 21.9101 4.60822 21.9618 4.21532 21.9576L0.579102 21.952ZM2.26842 17.5116H3.53839C3.99816 17.5116 4.34711 17.4286 4.58672 17.2612C4.7048 17.1798 4.79956 17.0722 4.86255 16.948C4.92553 16.8238 4.95477 16.6869 4.94765 16.5495C4.9549 16.4149 4.92877 16.2806 4.87134 16.1571C4.81391 16.0336 4.72673 15.9243 4.61668 15.8378C4.34482 15.6528 4.01269 15.5628 3.67767 15.5832H2.26692L2.26842 17.5116ZM3.76603 20.7381C4.25426 20.7381 4.62716 20.6453 4.88176 20.4568C5.01073 20.3598 5.1129 20.235 5.17964 20.093C5.24637 19.951 5.27571 19.7959 5.26515 19.641C5.27523 19.4884 5.24447 19.3359 5.17567 19.1973C5.10687 19.0588 5.00222 18.9386 4.87127 18.8478C4.60769 18.6691 4.2273 18.5805 3.72709 18.5805H2.26093V20.7353L3.76603 20.7381Z" fill="black"/>
<path d="M9.47746 22.042C9.19982 22.0455 8.92364 22.0036 8.66126 21.9183C8.42559 21.8425 8.2086 21.7229 8.02327 21.5666C7.84332 21.4144 7.70075 21.2272 7.60544 21.0181C7.50317 20.7903 7.45218 20.5451 7.45568 20.298C7.44432 20.0603 7.49436 19.8236 7.60155 19.6081C7.70873 19.3925 7.86987 19.2046 8.0712 19.0602C8.48155 18.7648 9.0731 18.5956 9.84587 18.5525L11.3435 18.4695V17.9983C11.3503 17.8915 11.3298 17.7846 11.2837 17.6868C11.2375 17.5889 11.1672 17.5028 11.0784 17.4357C10.8507 17.2902 10.5774 17.2208 10.3027 17.2388C10.0521 17.2311 9.8032 17.2793 9.5763 17.3794C9.48706 17.4188 9.407 17.4744 9.34069 17.543C9.27438 17.6115 9.22314 17.6917 9.18991 17.7789H7.6923C7.71372 17.5229 7.79888 17.2753 7.94091 17.0559C8.08409 16.8366 8.27558 16.6486 8.50251 16.5046C8.75621 16.3441 9.03734 16.2256 9.33369 16.1543C9.67999 16.0708 10.0365 16.0301 10.394 16.0334C10.7623 16.0303 11.129 16.0777 11.4828 16.174C11.7751 16.2508 12.048 16.3819 12.2855 16.5594C12.4996 16.726 12.6689 16.9375 12.7797 17.1769C12.8974 17.4384 12.9555 17.7201 12.9504 18.0039V21.9619H11.369V21.2052H11.2671C11.1021 21.4754 10.8535 21.6922 10.5542 21.8268C10.2184 21.9773 9.84944 22.0511 9.47746 22.042ZM10.0151 20.8915C10.1938 20.893 10.3715 20.8664 10.5408 20.8127C10.6935 20.7633 10.8355 20.6885 10.9601 20.5919C11.0766 20.5009 11.1719 20.3884 11.2402 20.2614C11.3076 20.1338 11.342 19.9931 11.3405 19.8507V19.4287L10.093 19.5019C9.39909 19.5469 9.04964 19.7813 9.04465 20.2051C9.04073 20.3042 9.06319 20.4027 9.11 20.4916C9.1568 20.5805 9.22648 20.657 9.31272 20.7143C9.52036 20.843 9.76675 20.9051 10.0151 20.8915Z" fill="black"/>
<path d="M13.9731 16.1552H15.5516V17.0849H15.652C15.7846 16.7666 16.0203 16.4955 16.3259 16.3099C16.6718 16.1127 17.0717 16.0149 17.4761 16.0286C18.162 16.0286 18.6851 16.2161 19.0456 16.5912C19.406 16.9663 19.5857 17.5022 19.5847 18.1989V21.9458H17.9568V18.5674C17.9568 18.1632 17.8644 17.8594 17.6797 17.6559C17.495 17.4525 17.209 17.3498 16.8216 17.3479C16.6473 17.345 16.4741 17.3751 16.3124 17.4365C16.1661 17.4944 16.0352 17.5818 15.929 17.6925C15.8192 17.8084 15.7361 17.9444 15.6849 18.092C15.6272 18.2591 15.5989 18.4339 15.6011 18.6096V21.9515H13.9731V16.1552Z" fill="black"/>
<path d="M24.4385 16.1539H26.285L23.9353 18.6392L26.4468 21.9501H24.5223L22.7252 19.5956L22.2759 20.026V21.9501H20.645V13.9414H22.2729V18.4169H22.3748L24.4385 16.1539Z" fill="black"/>
<path d="M27.7383 15.3467C27.6035 15.3481 27.4695 15.3286 27.3414 15.289C27.2319 15.2533 27.1304 15.199 27.0419 15.1287C26.9592 15.0613 26.8933 14.9778 26.8487 14.8839C26.8032 14.7865 26.7802 14.681 26.7813 14.5745C26.7798 14.4657 26.8027 14.3579 26.8487 14.258C26.893 14.1644 26.959 14.0813 27.0419 14.0147C27.1295 13.9439 27.2313 13.8903 27.3414 13.8572C27.4695 13.8181 27.6036 13.7991 27.7383 13.8009C27.872 13.7989 28.0052 13.8179 28.1322 13.8572C28.2423 13.8903 28.3442 13.9438 28.4317 14.0147C28.5151 14.0815 28.582 14.1646 28.6279 14.258C28.6751 14.3576 28.6986 14.4656 28.6968 14.5745C28.6987 14.6795 28.6759 14.7836 28.6301 14.8794C28.5843 14.9752 28.5165 15.0603 28.4317 15.1287C28.3432 15.199 28.2417 15.2533 28.1322 15.289C28.0052 15.3288 27.8721 15.3483 27.7383 15.3467ZM26.9206 16.1554H28.55V21.9517H26.9206V16.1554Z" fill="black"/>
<path d="M29.6206 16.1546H31.1991V17.0843H31.2994C31.4325 16.7651 31.6694 16.4934 31.9764 16.3079C32.3224 16.111 32.7222 16.0132 33.1265 16.0266C33.8124 16.0266 34.3356 16.2141 34.696 16.5892C35.0564 16.9643 35.2362 17.5002 35.2352 18.1969V21.9438H33.6043V18.5668C33.6043 18.1631 33.5129 17.8635 33.3272 17.6553C33.1415 17.4472 32.8569 17.3473 32.4691 17.3473C32.2947 17.3444 32.1215 17.3745 31.9599 17.4359C31.8136 17.4938 31.6827 17.5812 31.5765 17.6919C31.4667 17.8076 31.384 17.9437 31.3339 18.0914C31.275 18.2582 31.2461 18.4332 31.2485 18.609V21.9508H29.6206V16.1546Z" fill="black"/>
<path d="M38.9565 24.1481C38.5797 24.1516 38.2039 24.1109 37.8378 24.0271C37.5295 23.958 37.2355 23.8416 36.9676 23.6825C36.7347 23.5454 36.5359 23.3626 36.3851 23.1467C36.2402 22.9353 36.1528 22.6938 36.1305 22.4434H37.7419C37.7683 22.5369 37.8172 22.6235 37.8846 22.6967C37.9521 22.7698 38.0365 22.8275 38.1313 22.8653C38.4001 22.9805 38.6942 23.0345 38.9894 23.0229C39.4297 23.0229 39.7702 22.9338 40.0108 22.7556C40.131 22.6646 40.2265 22.5479 40.2892 22.4154C40.352 22.2828 40.3803 22.1382 40.3717 21.9933V20.9215H40.2714C40.111 21.2213 39.8557 21.4669 39.5405 21.6248C39.1912 21.7899 38.8038 21.8711 38.4128 21.8611C38.0552 21.8662 37.7008 21.797 37.375 21.6586C37.0701 21.5255 36.8017 21.3287 36.5902 21.0833C36.3631 20.8161 36.1937 20.5099 36.0915 20.1817C35.9711 19.7973 35.9125 19.3981 35.9178 18.9974C35.9126 18.5861 35.9712 18.1763 36.0915 17.7808C36.1928 17.4443 36.3627 17.1295 36.5917 16.8539C36.8061 16.6018 37.0792 16.3992 37.39 16.2617C37.7217 16.1201 38.0829 16.0495 38.4473 16.055C38.6493 16.0544 38.8506 16.0781 39.0463 16.1253C39.2311 16.1712 39.4088 16.2393 39.575 16.3279C39.8988 16.5025 40.1595 16.764 40.3238 17.0789H40.4256V16.1492H42.0026V21.9356C42.008 22.2531 41.9352 22.5674 41.79 22.8541C41.6482 23.1301 41.4394 23.371 41.1804 23.5574C40.8928 23.7606 40.5672 23.9113 40.2205 24.0018C39.8087 24.1067 39.3831 24.1559 38.9565 24.1481ZM40.3882 19.0045C40.3912 18.7711 40.3585 18.5385 40.2909 18.3139C40.2338 18.1243 40.1388 17.9467 40.0108 17.7906C39.8929 17.6493 39.7417 17.5357 39.569 17.4587C39.3831 17.3826 39.1825 17.3433 38.9797 17.3433C38.7769 17.3433 38.5763 17.3826 38.3904 17.4587C38.2197 17.5362 38.0706 17.6498 37.9546 17.7906C37.8285 17.9466 37.7363 18.1244 37.6835 18.3139C37.5597 18.765 37.5597 19.2383 37.6835 19.6894C37.7366 19.8783 37.8276 20.0558 37.9516 20.2127C38.0667 20.3544 38.2168 20.4678 38.3889 20.5432C38.5738 20.623 38.7755 20.6624 38.9789 20.6585C39.1853 20.6627 39.39 20.6233 39.578 20.5432C39.7537 20.4682 39.9077 20.3549 40.0273 20.2127C40.1545 20.0576 40.2485 19.8809 40.3043 19.6922C40.3667 19.4678 40.3949 19.2363 40.3882 19.0045Z" fill="black"/>
</g>
<defs>
<clipPath id="clip0_5719_223580">
<rect width="41.4211" height="23.1471" fill="white" transform="translate(0.579102 1)"/>
</clipPath>
</defs>
</svg>
