<svg width="63" height="24" viewBox="0 0 63 24" fill="none" xmlns="http://www.w3.org/2000/svg">
<g clip-path="url(#clip0_5708_223716)">
<path d="M62.775 7.62106C62.2125 6.01292 60.6797 4.85813 58.8793 4.85813H58.8417C57.6713 4.85813 56.6165 5.34525 55.8657 6.12723C55.1136 5.34525 54.0588 4.85813 52.8897 4.85813H52.8521C51.8233 4.85813 50.8828 5.23483 50.1606 5.85834V5.54139C50.1359 5.22574 49.8761 4.97763 49.5553 4.97763H46.7936C46.4559 4.97763 46.1831 5.25042 46.1831 5.58945V20.5862C46.1831 20.9252 46.4559 21.198 46.7936 21.198H49.5553C49.8631 21.198 50.1164 20.9681 50.1567 20.6706L50.1554 9.90466C50.1554 9.86699 50.1567 9.83192 50.1606 9.79685C50.2047 9.31623 50.5568 8.92134 51.1127 8.87197H51.2154H51.505H51.6219C51.8545 8.89276 52.0506 8.97459 52.2052 9.098C52.4455 9.28895 52.5793 9.58252 52.5793 9.90466L52.5897 20.6174C52.5897 20.9564 52.8638 21.2305 53.2002 21.2305H55.9618C56.2879 21.2305 56.5529 20.9707 56.5685 20.6472L56.5672 9.89038C56.5659 9.53705 56.7295 9.2175 57.0166 9.02785C57.1582 8.93692 57.3284 8.87587 57.5245 8.85769H57.6271H57.9168H58.0337C58.6312 8.90965 58.9923 9.36299 58.991 9.89038L59.0014 20.5888C59.0014 20.9278 59.2755 21.2006 59.612 21.2006H62.3736C62.71 21.2006 62.9841 20.9278 62.9841 20.5888V9.08241C62.9841 8.29783 62.8958 7.96399 62.775 7.62106Z" fill="#54C1F0"/>
<path d="M44.0803 5.0155H42.5007V2.45651C42.5007 2.45391 42.5007 2.45131 42.5007 2.44871C42.5007 2.14086 42.2513 1.89145 41.9434 1.89145C41.9071 1.89145 41.872 1.89665 41.8382 1.90314C40.0872 2.38376 40.4379 4.80896 37.2411 5.0155H37.1697H36.9307C36.8839 5.0155 36.8397 5.02199 36.7969 5.03109H36.7943L36.7969 5.03238C36.5241 5.09344 36.3188 5.33505 36.3188 5.62602V8.38765C36.3188 8.72408 36.5929 8.99817 36.9307 8.99817H38.5973L38.5947 20.7085C38.5947 21.0423 38.8648 21.3125 39.1987 21.3125H41.9291C42.2617 21.3125 42.5319 21.0423 42.5319 20.7085L42.5332 8.99817H44.0803C44.4167 8.99817 44.6908 8.72408 44.6908 8.38765V5.62602C44.6908 5.28958 44.4167 5.0155 44.0803 5.0155Z" fill="#54C1F0"/>
<path d="M34.1452 5.0186H31.3835C31.0471 5.0186 30.7743 5.29269 30.7743 5.62912V11.3394C30.7678 11.6928 30.482 11.9759 30.1274 11.9759H28.9713C28.6128 11.9759 28.3231 11.6876 28.3231 11.329L28.3128 5.62912C28.3128 5.29269 28.0387 5.0186 27.7022 5.0186H24.9406C24.6029 5.0186 24.3301 5.29269 24.3301 5.62912V11.8876C24.3301 14.2647 26.0252 15.9599 28.4037 15.9599C28.4037 15.9599 30.1885 15.9599 30.243 15.9703C30.5652 16.0067 30.8159 16.2769 30.8159 16.6094C30.8159 16.938 30.5704 17.2069 30.2521 17.2472C30.2365 17.2498 30.2223 17.2537 30.2054 17.2563L26.1668 17.2706C25.8291 17.2706 25.5563 17.5447 25.5563 17.8811V20.6414C25.5563 20.9792 25.8291 21.252 26.1668 21.252H30.6821C33.0618 21.252 34.7557 19.5581 34.7557 17.1797V5.62912C34.7557 5.29269 34.4829 5.0186 34.1452 5.0186Z" fill="#233266"/>
<path d="M7.41376 10.0748V11.3634V11.7791C7.41376 12.1363 7.12409 12.4273 6.76687 12.4273L5.01455 12.4286V9.01356H6.76687C7.12409 9.01356 7.41376 9.30194 7.41376 9.66046V10.0748ZM7.65667 5.01401H1.62031C1.28907 5.01401 1.02148 5.28289 1.02148 5.61283V8.31861C1.02148 8.3238 1.02278 8.329 1.02278 8.3342C1.02278 8.34719 1.02148 8.36018 1.02148 8.37187V17.0504V20.6186C1.02148 20.9512 1.27089 21.2227 1.58005 21.2305H1.632H4.39364C4.73007 21.2305 5.00416 20.9577 5.00416 20.6199L5.01455 16.4229H7.65667C9.86754 16.4229 11.4081 14.8888 11.4081 12.6689V8.77325C11.4081 6.5533 9.86754 5.01401 7.65667 5.01401Z" fill="#233266"/>
<path d="M18.8732 16.5599V16.9911C18.8732 17.0262 18.868 17.06 18.8628 17.0924C18.8563 17.1236 18.8472 17.1535 18.8368 17.1821C18.7511 17.4237 18.5094 17.599 18.2224 17.599H17.0728C16.7143 17.599 16.422 17.3263 16.422 16.9911V16.4702C16.422 16.4637 16.4207 16.4572 16.4207 16.4507L16.422 15.0647V15.0621V14.9088V14.6309L16.4233 14.627C16.4246 14.2931 16.7143 14.0229 17.0728 14.0229H18.2224C18.5822 14.0229 18.8732 14.2944 18.8732 14.6309V16.5599ZM18.4341 5.03141H14.6021C14.2631 5.03141 13.989 5.2886 13.989 5.60426V6.67851C13.989 6.68501 13.9903 6.6928 13.9903 6.6993C13.9903 6.70709 13.989 6.71488 13.989 6.72268V8.19442C13.989 8.52826 14.28 8.80105 14.6385 8.80105H18.2873C18.5757 8.84651 18.8043 9.05694 18.8368 9.38559V9.74151C18.8043 10.0546 18.5783 10.2832 18.3029 10.3092H16.496C14.0929 10.3092 12.3809 11.9056 12.3809 14.1476V17.2769V17.3587C12.3809 19.5878 13.8526 21.1738 16.2388 21.1738H21.2464C22.1453 21.1738 22.874 20.4932 22.874 19.6553V9.17645C22.874 6.63565 21.5646 5.03141 18.4341 5.03141Z" fill="#233266"/>
</g>
<defs>
<clipPath id="clip0_5708_223716">
<rect width="62" height="19.4601" fill="white" transform="translate(1 1.87305)"/>
</clipPath>
</defs>
</svg>
