<svg width="164" height="24" viewBox="0 0 164 24" fill="none" xmlns="http://www.w3.org/2000/svg">
<rect width="41" height="24" fill="white"/>
<g clip-path="url(#clip0_7951_91765)">
<path fill-rule="evenodd" clip-rule="evenodd" d="M14.6479 17.9769L16.6764 6.19336H19.913L17.8846 17.9769H14.6479Z" fill="#00589B"/>
<path fill-rule="evenodd" clip-rule="evenodd" d="M29.6116 6.48722C28.6817 6.16101 27.7025 5.99557 26.7164 5.99807C23.5108 5.99807 21.2696 7.5911 21.2541 9.88258C21.2385 11.5748 22.8569 12.5266 24.0828 13.0863C25.3087 13.6459 25.7676 14.0271 25.7521 14.5493C25.7521 15.3447 24.7545 15.7016 23.8212 15.7016C22.7731 15.7317 21.7321 15.5205 20.7797 15.0847L20.354 14.8886L19.9106 17.5326C20.6622 17.8719 22.0521 18.1496 23.5086 18.165C26.9093 18.165 29.1017 16.5896 29.135 14.135C29.1505 12.802 28.2837 11.7775 26.4193 10.9314C25.291 10.396 24.6037 10.039 24.6037 9.48598C24.6037 8.98141 25.1934 8.46142 26.4526 8.46142C27.283 8.44059 28.1083 8.59608 28.8734 8.91751L29.166 9.04751L29.6094 6.49603L29.6116 6.48722Z" fill="#00589B"/>
<path fill-rule="evenodd" clip-rule="evenodd" d="M37.9028 6.20898H35.3999C34.6307 6.20898 34.0432 6.42932 33.6996 7.18507L28.9067 17.9903H32.2919C32.2919 17.9903 32.8483 16.5295 32.9791 16.2276H37.118C37.2155 16.6352 37.5104 17.9903 37.5104 17.9903H40.5031L37.9028 6.20898ZM33.9124 13.8039L35.2048 10.5209C35.1716 10.554 35.4664 9.8379 35.6283 9.39944L35.8499 10.4064C35.8499 10.4064 36.4729 13.22 36.6037 13.8039H33.9124Z" fill="#00589B"/>
<path fill-rule="evenodd" clip-rule="evenodd" d="M11.948 6.20898L8.77566 14.2446L8.45865 12.6141C7.86009 10.7192 6.0201 8.69657 3.96729 7.67201L6.86251 17.9771H10.2809L15.3664 6.20898H11.948Z" fill="#00589B"/>
<path fill-rule="evenodd" clip-rule="evenodd" d="M5.84914 6.19411H0.632862L0.599609 6.45411C4.63873 7.42799 7.33665 9.78557 8.45838 12.6147L7.3034 7.19443C7.10831 6.4475 6.55188 6.22055 5.84914 6.1875V6.19411Z" fill="#EFA841"/>
</g>
<rect x="45" width="41" height="24" fill="white"/>
<path d="M66.5567 12.5606C68.3511 12.5606 69.8057 11.106 69.8057 9.31155C69.8057 7.51715 68.3511 6.0625 66.5567 6.0625C64.7623 6.0625 63.3076 7.51715 63.3076 9.31155C63.3076 11.106 64.7623 12.5606 66.5567 12.5606Z" fill="#EF9122"/>
<path d="M63.3076 9.31155C63.3076 7.49958 64.7447 6.0625 66.5567 6.0625C68.3686 6.0625 69.8057 7.49958 69.8057 9.31155C69.8057 11.1235 68.3686 12.5606 66.5567 12.5606" fill="#F26E21"/>
<path d="M64.3066 6.99973C65.5563 5.75009 67.6182 5.75009 68.8678 6.99973C70.1174 8.24936 70.1174 10.3113 68.8678 11.5609" fill="#F44500"/>
<path d="M47.7495 6.25H46V12.3732H47.7495C48.6867 12.3732 49.374 12.1233 49.9364 11.6859C50.6237 11.1236 51.061 10.2488 51.061 9.31161C51.061 7.49964 49.7489 6.25 47.7495 6.25ZM49.1866 10.8737C48.8117 11.1861 48.3118 11.3735 47.562 11.3735H47.1872V7.31219H47.4996C48.2493 7.31219 48.7492 7.43715 49.1241 7.81204C49.5615 8.18693 49.8114 8.74927 49.8114 9.31161C49.8739 9.87394 49.6239 10.4988 49.1866 10.8737Z" fill="#595A5B"/>
<path d="M51.623 6.25H52.8102V12.3732H51.623V6.25Z" fill="#595A5B"/>
<path d="M55.8098 8.62429C55.06 8.37436 54.8726 8.18692 54.8726 7.87451C54.8726 7.49962 55.2475 7.18721 55.7473 7.18721C56.1222 7.18721 56.4346 7.31217 56.747 7.68706L57.3719 6.8748C56.872 6.43743 56.2472 6.1875 55.5599 6.1875C54.4977 6.1875 53.623 6.93728 53.623 7.93699C53.623 8.81174 53.9978 9.18663 55.1225 9.624C55.6224 9.81144 55.8098 9.87392 55.9348 9.99889C56.1847 10.1239 56.3097 10.3738 56.3097 10.6237C56.3097 11.1236 55.9348 11.4985 55.3724 11.4985C54.8101 11.4985 54.3103 11.186 54.0603 10.6862L53.3105 11.436C53.8729 12.2482 54.5602 12.6231 55.4349 12.6231C56.6846 12.6231 57.5593 11.8109 57.5593 10.6237C57.5593 9.56152 57.1844 9.12414 55.8098 8.62429Z" fill="#595A5B"/>
<path d="M57.9336 9.31153C57.9336 11.1235 59.3707 12.4981 61.1826 12.4981C61.6825 12.4981 62.1199 12.3731 62.6822 12.1232V10.6861C62.1824 11.186 61.745 11.3734 61.2451 11.3734C60.058 11.3734 59.1832 10.4987 59.1832 9.24905C59.1832 8.0619 60.058 7.12467 61.1826 7.12467C61.745 7.12467 62.1824 7.31212 62.6822 7.81197V6.37489C62.1824 6.12496 61.745 6 61.1826 6C59.4332 6.12496 57.9336 7.56204 57.9336 9.31153Z" fill="#3B3D3F"/>
<path d="M72.4923 10.3738L70.8678 6.25H69.5557L72.1174 12.5607H72.8047L75.4914 6.25H74.1793L72.4923 10.3738Z" fill="black"/>
<path d="M75.9912 12.3732H79.4277V11.3735H77.2408V9.6865H79.3652V8.62431H77.2408V7.31219H79.4277V6.25H75.9912V12.3732Z" fill="black"/>
<path d="M82.802 9.81146C83.7392 9.62402 84.2391 8.9992 84.2391 8.06197C84.2391 6.9373 83.4268 6.25 82.0522 6.25H80.2402V12.3732H81.4274V9.93642H81.6148L83.3018 12.3732H84.7389L82.802 9.81146ZM81.8023 9.06168H81.4274V7.18723H81.8023C82.5521 7.18723 82.9894 7.49964 82.9894 8.12445C82.9894 8.74927 82.5521 9.06168 81.8023 9.06168Z" fill="#595A5B"/>
<path d="M47.7495 6.25H46V12.3732H47.7495C48.6867 12.3732 49.374 12.1233 49.9364 11.6859C50.6237 11.1236 51.061 10.2488 51.061 9.31161C51.061 7.49964 49.7489 6.25 47.7495 6.25ZM49.1866 10.8737C48.8117 11.1861 48.3118 11.3735 47.562 11.3735H47.1872V7.31219H47.4996C48.2493 7.31219 48.7492 7.43715 49.1241 7.81204C49.5615 8.18693 49.8114 8.74927 49.8114 9.31161C49.8739 9.87394 49.6239 10.4988 49.1866 10.8737Z" fill="#595A5B"/>
<path d="M51.623 6.25H52.8102V12.3732H51.623V6.25Z" fill="#595A5B"/>
<path d="M55.8098 8.62429C55.06 8.37436 54.8726 8.18692 54.8726 7.87451C54.8726 7.49962 55.2475 7.18721 55.7473 7.18721C56.1222 7.18721 56.4346 7.31217 56.747 7.68706L57.3719 6.8748C56.872 6.43743 56.2472 6.1875 55.5599 6.1875C54.4977 6.1875 53.623 6.93728 53.623 7.93699C53.623 8.81174 53.9978 9.18663 55.1225 9.624C55.6224 9.81144 55.8098 9.87392 55.9348 9.99889C56.1847 10.1239 56.3097 10.3738 56.3097 10.6237C56.3097 11.1236 55.9348 11.4985 55.3724 11.4985C54.8101 11.4985 54.3103 11.186 54.0603 10.6862L53.3105 11.436C53.8729 12.2482 54.5602 12.6231 55.4349 12.6231C56.6846 12.6231 57.5593 11.8109 57.5593 10.6237C57.5593 9.56152 57.1844 9.12414 55.8098 8.62429Z" fill="#595A5B"/>
<path d="M61.2452 12.4984C61.745 12.4984 62.1824 12.3734 62.7447 12.1235V10.6864C62.2449 11.1862 61.8075 11.3737 61.3076 11.3737C60.1205 11.3737 59.2457 10.4989 59.2457 9.24931C59.2457 8.62449 59.4957 8.12464 59.8706 7.68726L59.0583 6.875C58.4335 7.43734 57.9961 8.31208 57.9961 9.24931C57.9336 11.1238 59.3707 12.4984 61.2452 12.4984Z" fill="#595A5B"/>
<path d="M82.802 9.81146C83.7392 9.62402 84.2391 8.9992 84.2391 8.06197C84.2391 6.9373 83.4268 6.25 82.0522 6.25H80.2402V12.3732H81.4274V9.93642H81.6148L83.3018 12.3732H84.7389L82.802 9.81146ZM81.8023 9.06168H81.4274V7.18723H81.8023C82.5521 7.18723 82.9894 7.49964 82.9894 8.12445C82.9894 8.74927 82.5521 9.06168 81.8023 9.06168Z" fill="black"/>
<path d="M54.8105 18.0595V14.623L57.1849 17.0598V14.8105H57.6847V18.247L55.3104 15.8102V18.0595H54.8105Z" fill="#F26E21"/>
<path d="M60.184 15.3104H58.8719V16.0602H60.1216V16.56H58.8719V17.6222H60.184V18.0596H58.3721V14.8105H60.184V15.3104Z" fill="#F26E21"/>
<path d="M61.7457 15.3104V18.0596H61.2459V15.3104H60.4961V14.873H62.4955V15.3104H61.7457Z" fill="#F26E21"/>
<path d="M63.2459 14.873L64.0582 17.0599L64.933 14.748L65.7452 17.0599L66.62 14.873H67.2448L65.8077 18.3095L64.9954 15.9977L64.1207 18.3095L62.7461 14.873H63.2459Z" fill="#F26E21"/>
<path d="M67.3066 16.4351C67.3118 15.9892 67.4912 15.5632 67.8065 15.2479C68.1218 14.9326 68.5478 14.7532 68.9936 14.748C69.4395 14.7532 69.8655 14.9326 70.1808 15.2479C70.4961 15.5632 70.6755 15.9892 70.6807 16.4351C70.6755 16.8809 70.4961 17.307 70.1808 17.6222C69.8655 17.9375 69.4395 18.1169 68.9936 18.1221C68.5563 18.1221 68.1814 17.9971 67.869 17.6847C67.4941 17.3723 67.3066 16.9974 67.3066 16.4351ZM67.8065 16.4351C67.8065 16.8099 67.9315 17.0599 68.1814 17.3098C68.4313 17.5597 68.6812 17.6847 68.9936 17.6847C69.3061 17.6847 69.6185 17.5597 69.8684 17.3098C70.1183 17.0599 70.2433 16.8099 70.2433 16.4351C70.2433 16.0602 70.1183 15.8102 69.8684 15.5603C69.6185 15.3104 69.3685 15.1854 68.9936 15.1854C68.6812 15.1854 68.3688 15.3104 68.1189 15.5603C67.9315 15.8102 67.8065 16.1226 67.8065 16.4351Z" fill="#F26E21"/>
<path d="M72.4303 16.685L73.43 18.0596H72.8052L71.868 16.7475H71.8055V18.0596H71.3057V14.8105H71.868C72.3054 14.8105 72.6178 14.873 72.8052 15.0605C72.9927 15.2479 73.1176 15.4978 73.1176 15.7478C73.1176 15.9977 73.0552 16.1851 72.9302 16.3101C72.8052 16.56 72.6178 16.685 72.4303 16.685ZM71.8055 16.3101H71.9305C72.3679 16.3101 72.6178 16.1227 72.6178 15.8103C72.6178 15.4978 72.3679 15.3104 71.9305 15.3104H71.743V16.3101H71.8055Z" fill="#F26E21"/>
<path d="M74.367 16.1226L75.6167 14.8105H76.2415L74.8044 16.2476L76.2415 17.9971H75.6167L74.4295 16.56L74.3045 16.685V17.9971H73.8047V14.748H74.3045V16.1226H74.367Z" fill="#F26E21"/>
<path d="M78.3655 11.3743H77.2408V10.2496L75.9912 9V12.374H79.3652L78.3655 11.3743Z" fill="#3B3D3F"/>
<path d="M73.8669 6.87677L72.4923 10.3758L70.8678 6.25195H69.5557L72.1174 12.5626H72.8047L74.8041 7.814L73.8669 6.87677Z" fill="#3B3D3F"/>
<rect x="90" width="44" height="24" fill="white"/>
<g clip-path="url(#clip1_7951_91765)">
<path d="M98.0931 14.7455L98.0578 14.7155C98.0578 14.5098 98.0638 14.3035 98.0507 14.0988C98.0415 13.9556 98.08 13.9101 98.231 13.9115C99.1246 13.9192 100.018 13.9115 100.912 13.9182C101.04 13.9182 101.089 13.8907 101.083 13.7534C101.072 13.4599 101.075 13.1657 101.083 12.8714C101.085 12.7628 101.051 12.7321 100.942 12.7324C99.56 12.7357 98.1785 12.7357 96.7972 12.7324C96.6759 12.7324 96.6515 12.7726 96.6519 12.8834C96.6547 14.5298 96.6547 16.1762 96.6519 17.8226C96.6519 17.932 96.6822 17.9602 96.7898 17.9599C98.1655 17.9564 99.5414 17.9564 100.918 17.9599C101.057 17.9599 101.086 17.9077 101.083 17.7835C101.076 17.5076 101.07 17.2306 101.083 16.9551C101.091 16.7981 101.045 16.76 100.889 16.7614C99.9954 16.7695 99.1017 16.7632 98.2077 16.7681C98.0867 16.7681 98.0415 16.742 98.0507 16.6147C98.0647 16.4564 98.0647 16.2973 98.0507 16.1391C98.0324 15.9651 98.0945 15.9274 98.2624 15.9274C99.1148 15.9366 99.9671 15.9274 100.82 15.9352C100.97 15.9352 101.008 15.8896 101.002 15.7464C100.991 15.4705 100.991 15.1936 101.002 14.918C101.009 14.7741 100.959 14.7452 100.826 14.7459C99.9146 14.7505 99.0033 14.7466 98.0931 14.7455Z" fill="#FEFEFE"/>
<path d="M129.288 8.087H129.373C129.616 8.45497 129.871 8.81483 130.114 9.1828C130.543 9.83642 130.976 10.4871 131.413 11.1349C131.432 11.167 131.46 11.1931 131.494 11.21C131.527 11.227 131.564 11.2342 131.602 11.2308C132.078 11.2273 132.554 11.2255 133.03 11.2308C133.14 11.2308 133.167 11.1987 133.167 11.0918C133.164 9.44046 133.164 7.78912 133.167 6.13777C133.167 6.02593 133.132 6.00018 133.026 6.00229C132.673 6.00829 132.32 6.01182 131.968 6.00229C131.824 5.99806 131.78 6.03193 131.781 6.18258C131.788 7.10515 131.785 8.02773 131.785 8.9503V9.1454C131.735 9.11787 131.694 9.07722 131.666 9.02792C131.017 8.05454 130.365 7.08328 129.719 6.10849C129.671 6.03793 129.629 6.00265 129.541 6.00265C129.035 6.00688 128.53 6.00688 128.024 6.00265C127.92 6.00265 127.898 6.03793 127.898 6.13318C127.9 7.79064 127.9 9.44787 127.898 11.1049C127.898 11.2079 127.933 11.2322 128.028 11.2308C128.387 11.2255 128.746 11.2213 129.104 11.2308C129.251 11.2358 129.288 11.1955 129.287 11.0474C129.281 10.0613 129.287 9.07414 129.288 8.087Z" fill="#FEFEFE"/>
<path d="M102.026 7.59362C102.029 7.66418 102.034 7.73474 102.034 7.8053C102.034 8.89228 102.036 9.97926 102.031 11.0662C102.031 11.1978 102.063 11.2356 102.196 11.2321C102.554 11.2225 102.913 11.225 103.272 11.2321C103.38 11.2321 103.41 11.1993 103.41 11.0909C103.407 9.43983 103.407 7.7886 103.41 6.13726C103.41 6.04412 103.392 6.00178 103.285 6.00249C102.627 6.00672 101.968 6.00672 101.31 6.00249C101.228 6.00249 101.206 6.03283 101.183 6.10092C101.051 6.48018 100.915 6.85768 100.778 7.23517C100.537 7.90291 100.296 8.57041 100.053 9.23768C99.9936 9.22109 99.9993 9.17347 99.9859 9.13642C99.623 8.13705 99.2601 7.13745 98.8971 6.13761C98.865 6.04835 98.8294 5.99896 98.7162 6.00002C98.0758 6.00743 97.4351 6.00566 96.7944 6.00002C96.6907 6.00002 96.6533 6.02365 96.6533 6.13585C96.6566 7.78696 96.6566 9.43807 96.6533 11.0892C96.6533 11.1975 96.6854 11.2303 96.7944 11.2282C97.1472 11.2225 97.5 11.2183 97.8528 11.2299C98.0021 11.2349 98.0359 11.1901 98.0352 11.0451C98.0296 9.89353 98.0331 8.74164 98.0352 7.59009H98.0508L98.0652 7.5841C98.3065 8.23007 98.5648 8.87076 98.7846 9.5245C98.9497 10.016 99.1589 10.4908 99.3138 10.9858C99.3406 11.0715 99.341 11.2388 99.5332 11.2303C99.8673 11.2155 100.204 11.2218 100.538 11.2303C100.634 11.2324 100.67 11.1911 100.699 11.1114C101.017 10.2322 101.332 9.35128 101.662 8.47598C101.774 8.17927 101.849 7.86669 102.014 7.59009L102.023 7.59574L102.026 7.59362Z" fill="#FEFEFE"/>
<path d="M116.901 16.0738C117.072 16.0262 117.238 15.9635 117.398 15.8864C117.86 15.6511 118.158 15.2814 118.256 14.7772C118.355 14.2639 118.285 13.7724 117.938 13.3512C117.656 13.0107 117.278 12.7722 116.861 12.755C115.753 12.7094 114.641 12.7377 113.532 12.7324C113.426 12.7324 113.407 12.7737 113.408 12.8671C113.41 14.5176 113.41 16.1681 113.408 17.8187C113.408 17.9274 113.438 17.9598 113.547 17.9574C113.917 17.9514 114.288 17.95 114.657 17.9574C114.781 17.9598 114.816 17.9242 114.814 17.8004C114.808 17.2895 114.811 16.7772 114.812 16.2671C114.812 16.2226 114.792 16.1701 114.836 16.1351C114.903 16.0815 115.322 16.1436 115.382 16.2131C115.8 16.6989 116.229 17.1766 116.631 17.6748C116.804 17.8896 116.988 17.9768 117.266 17.9609C117.707 17.9358 118.15 17.9542 118.642 17.9542C118.045 17.3128 117.484 16.7053 116.901 16.0738Z" fill="#FEFEFE"/>
<path d="M119.035 15.3513C119.035 16.1684 119.035 16.9853 119.035 17.8022C119.035 17.8883 119.027 17.9585 119.156 17.9581C120.55 17.9541 121.943 17.9541 123.336 17.9581C123.429 17.9581 123.456 17.9274 123.455 17.8364C123.45 17.5485 123.442 17.2599 123.457 16.9727C123.466 16.8038 123.422 16.7586 123.248 16.7611C122.361 16.7709 121.473 16.7639 120.585 16.7681C120.471 16.7681 120.413 16.7519 120.423 16.6185C120.436 16.4541 120.436 16.289 120.423 16.1246C120.41 15.9722 120.453 15.9263 120.613 15.9281C121.483 15.9369 122.353 15.9302 123.224 15.9348C123.345 15.9348 123.388 15.9027 123.384 15.7775C123.375 15.4952 123.372 15.213 123.384 14.9307C123.39 14.785 123.348 14.7441 123.202 14.7455C122.326 14.7526 121.45 14.7455 120.574 14.7512C120.464 14.7512 120.416 14.7293 120.424 14.6079C120.436 14.4378 120.436 14.2671 120.424 14.0971C120.413 13.951 120.459 13.9104 120.607 13.9118C121.5 13.9189 122.394 13.9118 123.288 13.9178C123.413 13.9178 123.465 13.8967 123.459 13.7563C123.447 13.4687 123.446 13.1801 123.459 12.8926C123.465 12.7515 123.412 12.7321 123.288 12.7324C121.924 12.7367 120.56 12.7367 119.196 12.7324C119.059 12.7324 119.032 12.7744 119.033 12.9014C119.037 13.7174 119.035 14.5345 119.035 15.3513Z" fill="#FEFEFE"/>
<path d="M93.1816 6.00627C92.9346 6.00627 92.6877 6.01085 92.4407 6.00415C92.3299 6.00133 92.259 6.02144 92.2121 6.13857C92.1144 6.382 91.9951 6.61697 91.8896 6.85723C91.733 7.21391 91.5841 7.57377 91.426 7.92974C91.268 8.28572 91.0997 8.63535 90.9427 8.99132C90.7829 9.35294 90.6358 9.71986 90.4763 10.0811C90.3313 10.411 90.1761 10.7363 90.0279 11.0647C89.9792 11.173 89.9774 11.239 90.1397 11.2341C90.5391 11.2221 90.9392 11.2189 91.3393 11.2358C91.492 11.2422 91.5435 11.172 91.5894 11.0594C91.6917 10.8058 91.7983 10.5535 91.8985 10.2992C91.9337 10.2053 91.9877 10.1697 92.0939 10.1704C92.8108 10.1757 93.5277 10.1725 94.246 10.1743C94.2986 10.1743 94.3603 10.1503 94.3928 10.2311C94.5074 10.5168 94.6397 10.7955 94.7424 11.0859C94.7805 11.1917 94.8182 11.2344 94.9301 11.2334C95.365 11.2284 95.8001 11.2284 96.2354 11.2334C96.36 11.2334 96.3871 11.2136 96.331 11.0898C96.0442 10.4593 95.7641 9.82605 95.4843 9.19171C95.0323 8.16388 94.5823 7.13512 94.1345 6.10541C94.1013 6.02955 94.0579 6.00415 93.9765 6.00556C93.7108 6.00944 93.4462 6.00627 93.1816 6.00627Z" fill="#FEFEFE"/>
<path d="M127.632 11.2269C127.375 10.6525 127.127 10.1021 126.883 9.54928C126.382 8.4095 125.882 7.26877 125.384 6.12711C125.344 6.03397 125.291 5.99904 125.186 6.0001C124.681 6.00645 124.175 6.00998 123.669 6.0001C123.519 5.99692 123.47 6.07066 123.424 6.18638C123.354 6.36278 123.275 6.53389 123.199 6.70711C123.051 7.04157 122.903 7.37532 122.756 7.71013C122.6 8.06646 122.446 8.4242 122.288 8.78017C122.14 9.11463 121.988 9.44662 121.839 9.78037C121.654 10.1924 121.509 10.6229 121.263 11.0053C121.223 11.0681 121.237 11.1341 121.247 11.1909C121.257 11.2575 121.333 11.2261 121.38 11.2261C121.797 11.2286 122.214 11.2261 122.631 11.23C122.731 11.23 122.777 11.1979 122.811 11.1069C122.914 10.8342 123.027 10.5654 123.137 10.2955C123.166 10.2228 123.198 10.167 123.298 10.1677C124.032 10.1723 124.767 10.1713 125.502 10.1677C125.569 10.1677 125.615 10.1864 125.64 10.2475C125.737 10.4846 125.825 10.7259 125.934 10.9577C125.979 11.0529 125.977 11.2184 126.114 11.2219C126.612 11.2346 127.11 11.2269 127.632 11.2269Z" fill="#FEFEFE"/>
<path d="M107.624 12.7345C107.027 12.7345 106.469 12.7345 105.911 12.7345C105.888 12.7334 105.865 12.7379 105.844 12.7474C105.822 12.757 105.804 12.7714 105.789 12.7895C105.652 12.9497 105.515 13.1096 105.377 13.2693C105.124 13.5622 104.873 13.8568 104.615 14.145C104.531 14.2385 104.447 14.2649 104.346 14.1337C104.205 13.9499 104.06 13.7629 103.903 13.5939C103.685 13.3586 103.468 13.1254 103.28 12.8647C103.222 12.7839 103.153 12.7341 103.048 12.7341C102.519 12.7341 101.99 12.7341 101.461 12.7341C101.423 12.7341 101.368 12.7137 101.357 12.7694C101.353 12.7938 101.386 12.829 101.408 12.8541C101.687 13.1688 101.965 13.4829 102.245 13.7964C102.666 14.2664 103.081 14.7423 103.512 15.2009C103.603 15.299 103.582 15.342 103.512 15.4197C103.206 15.7579 102.901 16.0975 102.598 16.4386C102.286 16.7885 101.967 17.1336 101.665 17.4924C101.54 17.6405 101.373 17.7587 101.292 17.9531C101.833 17.9531 102.362 17.9492 102.89 17.9563C103.016 17.9563 103.09 17.9104 103.168 17.8173C103.564 17.3467 103.97 16.8848 104.368 16.4163C104.451 16.3182 104.489 16.3274 104.573 16.4276C104.949 16.8806 105.342 17.3206 105.722 17.7704C105.771 17.8344 105.836 17.8851 105.91 17.9178C105.984 17.9505 106.065 17.9642 106.145 17.9577C106.586 17.944 107.027 17.9531 107.468 17.9531H107.693C107.689 17.9351 107.682 17.9176 107.674 17.9009C106.949 17.0796 106.228 16.2562 105.494 15.4408C105.384 15.3173 105.388 15.2366 105.492 15.1233C105.817 14.7687 106.136 14.4092 106.455 14.0504C106.836 13.6235 107.216 13.1942 107.624 12.7345Z" fill="#FEFEFE"/>
<path d="M127.039 12.7348C126.564 12.7598 125.981 12.6808 125.403 12.7806C124.817 12.8819 124.366 13.1687 124.141 13.7515C124.012 14.0846 123.996 14.4183 124.062 14.7676C124.166 15.319 124.623 15.7674 125.176 15.8758C125.571 15.9534 125.969 15.9213 126.366 15.9308C126.601 15.9361 126.836 15.928 127.071 15.9435C127.269 15.9562 127.424 16.1086 127.447 16.2702C127.499 16.6138 127.264 16.7609 126.97 16.7623C126.1 16.7666 125.23 16.766 124.359 16.7606C124.225 16.7606 124.191 16.7959 124.195 16.9275C124.205 17.2153 124.205 17.5033 124.195 17.7915C124.191 17.9231 124.227 17.9594 124.36 17.9587C125.248 17.9523 126.136 17.9523 127.023 17.9587C127.227 17.9595 127.429 17.9342 127.626 17.8835C128.083 17.7685 128.435 17.5149 128.668 17.101C128.872 16.738 128.899 16.3411 128.844 15.946C128.778 15.4778 128.518 15.1345 128.079 14.9299C127.786 14.793 127.475 14.7563 127.159 14.751C126.765 14.7443 126.371 14.7486 125.978 14.751C125.89 14.753 125.802 14.7417 125.717 14.7175C125.635 14.6933 125.564 14.6435 125.512 14.5756C125.461 14.5077 125.433 14.4251 125.432 14.34C125.428 14.1506 125.516 14.038 125.703 13.9632C125.802 13.9276 125.907 13.9118 126.013 13.9166C126.695 13.9166 127.377 13.9128 128.059 13.9198C128.191 13.9198 128.255 13.8807 128.306 13.76C128.433 13.4598 128.571 13.1645 128.714 12.8713C128.768 12.7605 128.75 12.733 128.628 12.7344C128.132 12.7376 127.638 12.7348 127.039 12.7348Z" fill="#FEFEFE"/>
<path d="M133.895 12.7383C132.89 12.7383 131.908 12.7383 130.927 12.7383C130.716 12.7399 130.506 12.7736 130.304 12.8381C129.813 12.9905 129.438 13.2841 129.258 13.7741C129.123 14.1396 129.129 14.5217 129.23 14.8974C129.358 15.3748 129.684 15.663 130.137 15.8278C130.393 15.9209 130.659 15.928 130.925 15.9308C131.325 15.9347 131.725 15.9209 132.125 15.9382C132.51 15.9551 132.683 16.212 132.565 16.4991C132.501 16.6537 132.331 16.7634 132.131 16.7637C131.267 16.7637 130.402 16.7701 129.54 16.7595C129.363 16.757 129.324 16.8117 129.333 16.9754C129.347 17.2395 129.347 17.5041 129.333 17.7682C129.324 17.9298 129.379 17.9604 129.53 17.959C130.453 17.9506 131.375 17.9562 132.298 17.9499C132.665 17.9482 133.024 17.8349 133.325 17.6249C133.848 17.2651 134.031 16.7383 133.997 16.1336C133.972 15.681 133.803 15.2908 133.394 15.0308C133.06 14.8191 132.692 14.7598 132.311 14.751C131.912 14.7418 131.512 14.7478 131.111 14.7492C131.023 14.751 130.936 14.7402 130.851 14.7171C130.791 14.6993 130.736 14.6677 130.69 14.6249C130.644 14.5821 130.609 14.5293 130.587 14.4705C130.565 14.4118 130.558 14.3488 130.564 14.2865C130.571 14.2242 130.592 14.1644 130.626 14.1117C130.745 13.9265 130.935 13.9173 131.122 13.9163C131.822 13.9135 132.521 13.9163 133.22 13.9163C133.291 13.9163 133.358 13.9279 133.397 13.8411C133.557 13.4785 133.722 13.1204 133.895 12.7383Z" fill="#FEFEFE"/>
<path d="M107.892 15.3509C107.892 16.1673 107.895 16.9837 107.89 17.8004C107.89 17.9239 107.925 17.9595 108.047 17.9567C108.405 17.9489 108.763 17.9496 109.122 17.9567C109.239 17.9592 109.287 17.9359 109.285 17.805C109.277 17.3463 109.288 16.8877 109.278 16.429C109.276 16.2851 109.312 16.2421 109.461 16.2421C110.048 16.2421 110.636 16.271 111.222 16.2276C111.648 16.2025 112.047 16.0152 112.338 15.7044C112.757 15.2585 112.887 14.7225 112.771 14.1168C112.708 13.7915 112.58 13.5071 112.354 13.2701C111.966 12.8601 111.464 12.7338 110.92 12.7324C109.968 12.7296 109.015 12.7324 108.066 12.7285C107.932 12.7285 107.889 12.7564 107.889 12.9C107.896 13.7185 107.892 14.5345 107.892 15.3509Z" fill="#FEFEFE"/>
<path d="M121.124 10.045C120.863 10.045 120.623 10.0486 120.383 10.045C119.937 10.0373 119.517 9.96176 119.219 9.57756C119.009 9.30731 118.955 8.98979 118.95 8.66486C118.944 8.22492 119.025 7.80932 119.396 7.50979C119.662 7.29458 119.977 7.23813 120.305 7.23566C120.764 7.23143 121.223 7.22967 121.681 7.23743C121.809 7.2399 121.837 7.19933 121.834 7.07937C121.826 6.7682 121.826 6.4568 121.834 6.14516C121.837 6.02414 121.794 5.9998 121.684 6.00403C121.033 6.01991 120.379 5.97158 119.73 6.03931C119.18 6.09788 118.666 6.26652 118.267 6.6673C117.842 7.08666 117.592 7.65226 117.568 8.24926C117.533 8.94075 117.56 9.61249 117.956 10.225C118.344 10.8247 118.923 11.0932 119.584 11.2128C119.869 11.264 120.169 11.2255 120.463 11.2269C120.514 11.2269 120.566 11.2357 120.596 11.1701C120.768 10.8018 120.941 10.4366 121.124 10.045Z" fill="#FEFEFE"/>
<path d="M116.82 8.60948C116.82 7.7931 116.817 6.97636 116.822 6.15998C116.822 6.04003 116.796 5.99699 116.668 6.00016C116.298 6.00863 115.927 6.00616 115.558 6.00016C115.454 6.00016 115.417 6.02204 115.417 6.13529C115.42 7.78616 115.42 9.4368 115.417 11.0872C115.417 11.2139 115.466 11.2283 115.571 11.2283C115.924 11.2237 116.277 11.2195 116.63 11.2301C116.778 11.2343 116.829 11.204 116.827 11.041C116.814 10.2306 116.82 9.41987 116.82 8.60948Z" fill="#FEFEFE"/>
<path d="M102.01 7.59009C101.846 7.86669 101.77 8.17927 101.657 8.47598C101.327 9.35128 101.013 10.2322 100.694 11.1114C100.665 11.1911 100.629 11.2324 100.533 11.2303C100.198 11.2236 99.8625 11.2172 99.5284 11.2303C99.3361 11.2388 99.3357 11.0715 99.3089 10.9858C99.1537 10.4919 98.9445 10.016 98.7797 9.5245C98.5599 8.87076 98.3017 8.23007 98.0603 7.58409C98.0519 7.56504 98.0434 7.54634 98.0346 7.52729L98.0304 7.59009C98.0304 8.74164 98.0261 9.89353 98.0304 11.0451C98.0304 11.1901 97.9972 11.2349 97.848 11.2299C97.4952 11.2183 97.1424 11.2225 96.7896 11.2282C96.682 11.2303 96.6484 11.1975 96.6484 11.0892C96.6517 9.43807 96.6517 7.78695 96.6484 6.13584C96.6484 6.02365 96.6869 5.99931 96.7896 6.00001C97.4302 6.00425 98.0709 6.00601 98.7113 6.00001C98.8245 6.00001 98.8602 6.04835 98.8923 6.13761C99.254 7.13745 99.6169 8.13705 99.981 9.13642C99.9944 9.17346 99.9888 9.22109 100.048 9.23767C100.29 8.57017 100.532 7.90244 100.774 7.23447C100.911 6.85697 101.047 6.47947 101.178 6.10021C101.202 6.03212 101.224 6.00107 101.305 6.00178C101.964 6.00625 102.623 6.00625 103.281 6.00178C103.387 6.00178 103.406 6.04341 103.406 6.13655C103.404 7.7879 103.404 9.43912 103.406 11.0902C103.406 11.1961 103.376 11.2314 103.267 11.2314C102.909 11.225 102.55 11.2225 102.192 11.2314C102.059 11.2349 102.026 11.1961 102.027 11.0655C102.032 9.97856 102.03 8.89158 102.03 7.80459C102.03 7.73403 102.025 7.66347 102.022 7.59291V7.53541L102.01 7.59009Z" fill="#0270CF"/>
<path d="M129.288 8.08789C129.288 9.07574 129.282 10.0636 129.288 11.0493C129.288 11.1961 129.253 11.2377 129.105 11.2328C128.747 11.2218 128.388 11.2261 128.029 11.2328C127.932 11.2328 127.899 11.2098 127.899 11.1068C127.902 9.44959 127.902 7.79236 127.899 6.13514C127.899 6.03847 127.921 6.00354 128.025 6.0046C128.53 6.00954 129.036 6.00954 129.542 6.0046C129.63 6.0046 129.672 6.03812 129.72 6.11044C130.366 7.08523 131.018 8.05649 131.667 9.02987C131.695 9.07917 131.736 9.11982 131.786 9.14736V8.95226C131.786 8.02968 131.789 7.1071 131.782 6.18453C131.782 6.03388 131.825 6.00001 131.969 6.00425C132.321 6.01518 132.674 6.01166 133.027 6.00425C133.133 6.00213 133.168 6.02788 133.168 6.13972C133.164 7.7913 133.164 9.44265 133.168 11.0938C133.168 11.1996 133.141 11.2349 133.031 11.2328C132.555 11.2268 132.078 11.2285 131.603 11.2328C131.565 11.2362 131.528 11.229 131.495 11.212C131.461 11.195 131.433 11.1689 131.414 11.1368C130.976 10.4898 130.543 9.83908 130.115 9.18475C129.873 8.81678 129.618 8.45692 129.374 8.08895C129.361 8.03709 129.358 7.97817 129.277 7.96935C129.281 8.01098 129.284 8.04944 129.288 8.08789Z" fill="#0270CF"/>
<path d="M116.901 16.0731C117.484 16.7046 118.045 17.3121 118.638 17.9542C118.148 17.9542 117.704 17.9358 117.262 17.9609C116.985 17.9768 116.804 17.8903 116.627 17.6748C116.227 17.1763 115.798 16.6989 115.381 16.2131C115.321 16.1426 114.901 16.0815 114.834 16.1351C114.791 16.1704 114.811 16.2226 114.811 16.2671C114.811 16.7783 114.806 17.2902 114.813 17.8004C114.813 17.9242 114.78 17.9598 114.656 17.9574C114.286 17.9493 113.915 17.9507 113.545 17.9574C113.437 17.9591 113.406 17.9274 113.406 17.8187C113.409 16.1681 113.409 14.5176 113.406 12.8671C113.406 12.7737 113.424 12.7317 113.53 12.7324C114.64 12.7377 115.753 12.7094 116.86 12.755C117.276 12.7722 117.655 13.0107 117.937 13.3512C118.285 13.7724 118.356 14.2639 118.254 14.7772C118.157 15.2814 117.859 15.6511 117.397 15.8864C117.237 15.9632 117.072 16.0257 116.901 16.0731ZM115.641 14.9638V14.9614C115.882 14.9614 116.123 14.9691 116.363 14.9589C116.575 14.9501 116.755 14.8675 116.849 14.665C116.89 14.5828 116.907 14.4907 116.899 14.3992C116.89 14.3077 116.856 14.2204 116.801 14.1471C116.668 13.9622 116.464 13.9185 116.254 13.9157C115.814 13.91 115.372 13.9157 114.933 13.9121C114.846 13.9121 114.806 13.9312 114.808 14.0286C114.814 14.3045 114.813 14.5804 114.808 14.8562C114.808 14.9416 114.835 14.967 114.919 14.9656C115.16 14.961 115.4 14.9638 115.641 14.9638Z" fill="#0270CF"/>
<path d="M109.798 11.1503C109.798 9.50585 109.804 7.86109 109.796 6.21633C109.796 6.03358 109.845 5.9983 110.018 6.00006C110.922 6.00923 111.827 6.00006 112.732 6.00606C113.186 6.00888 113.628 6.07662 114.012 6.34898C114.435 6.65027 114.647 7.06058 114.674 7.5792C114.703 8.1084 114.535 8.55399 114.156 8.91808C113.963 9.10218 113.724 9.2318 113.464 9.29382C113.29 9.33686 113.327 9.39966 113.417 9.49668C113.893 10.0075 114.367 10.5196 114.839 11.0328C114.889 11.0868 114.933 11.1464 114.999 11.2275C114.426 11.2275 113.882 11.2275 113.339 11.2275C113.31 11.2265 113.281 11.2188 113.256 11.2051C113.231 11.1913 113.209 11.1718 113.192 11.1481C112.743 10.6173 112.292 10.0881 111.84 9.56053C111.743 9.44658 111.395 9.36896 111.243 9.42612C111.17 9.45399 111.2 9.51538 111.2 9.56089C111.196 10.0601 111.191 10.5597 111.2 11.0589C111.202 11.2 111.159 11.2353 111.023 11.2325C110.63 11.2247 110.237 11.2325 109.843 11.2325C109.796 11.2325 109.799 11.1944 109.798 11.1503ZM112.032 7.201V7.19606C111.791 7.19606 111.55 7.19818 111.309 7.19606C111.229 7.19606 111.192 7.21617 111.193 7.30402C111.197 7.58626 111.195 7.8685 111.193 8.15074C111.193 8.21213 111.209 8.25199 111.281 8.25164C111.781 8.2467 112.281 8.2594 112.779 8.234C113.105 8.21742 113.296 7.99339 113.286 7.71327C113.276 7.43314 113.058 7.21934 112.735 7.20523C112.502 7.19147 112.267 7.201 112.032 7.201Z" fill="#0270CF"/>
<path d="M98.0937 14.7459C99.0046 14.7459 99.9159 14.7508 100.827 14.7459C100.961 14.7459 101.011 14.7741 101.003 14.918C100.991 15.1936 100.992 15.4705 101.003 15.7464C101.009 15.8897 100.971 15.9366 100.82 15.9352C99.9681 15.9278 99.1157 15.9352 98.2634 15.9274C98.0954 15.9256 98.0333 15.9627 98.0517 16.1391C98.0656 16.2973 98.0656 16.4564 98.0517 16.6147C98.0425 16.742 98.087 16.7688 98.2087 16.7681C99.102 16.7632 99.9956 16.7681 100.89 16.7614C101.046 16.7614 101.092 16.7967 101.084 16.9551C101.07 17.2306 101.075 17.5076 101.084 17.7835C101.087 17.9077 101.058 17.9599 100.919 17.9599C99.5429 17.955 98.1669 17.955 96.7908 17.9599C96.6849 17.9599 96.6525 17.932 96.6528 17.8226C96.6564 16.1762 96.6564 14.5298 96.6528 12.8834C96.6528 12.7727 96.6768 12.7317 96.7982 12.7324C98.1798 12.7367 99.5612 12.7367 100.943 12.7324C101.05 12.7324 101.084 12.7628 101.084 12.8714C101.077 13.165 101.074 13.4592 101.084 13.7534C101.089 13.8907 101.041 13.9189 100.913 13.9182C100.02 13.9129 99.1263 13.9182 98.232 13.9115C98.081 13.9115 98.0425 13.9556 98.0517 14.0988C98.0647 14.3035 98.0573 14.5098 98.0587 14.7155C98.0559 14.7438 98.0679 14.7512 98.0937 14.7459Z" fill="#0270CF"/>
<path d="M104.47 11.1502C104.47 9.50475 104.475 7.85928 104.47 6.21381C104.47 6.04976 104.5 5.99896 104.677 6.00002C106.023 6.00848 107.368 6.00637 108.714 6.00002C108.846 6.00002 108.899 6.02295 108.893 6.16971C108.88 6.45725 108.881 6.74584 108.893 7.03337C108.898 7.1692 108.854 7.19813 108.725 7.19742C107.837 7.19178 106.95 7.19742 106.062 7.19107C105.914 7.19107 105.849 7.2193 105.863 7.38053C105.877 7.53872 105.878 7.69778 105.866 7.8561C105.855 7.9944 105.909 8.02016 106.036 8.01945C106.899 8.01416 107.764 8.01945 108.627 8.01275C108.783 8.01275 108.829 8.04803 108.82 8.20538C108.806 8.46944 108.806 8.73406 108.82 8.99812C108.829 9.16182 108.793 9.2151 108.615 9.21298C107.757 9.20204 106.899 9.21086 106.039 9.20522C105.905 9.20522 105.849 9.23274 105.863 9.37739C105.876 9.53553 105.876 9.69446 105.863 9.85261C105.851 10.0022 105.888 10.053 106.052 10.0512C106.939 10.0417 107.827 10.0491 108.714 10.0438C108.847 10.0438 108.898 10.0692 108.893 10.2142C108.882 10.537 108.893 10.8606 108.893 11.1837C108.893 11.206 108.857 11.231 108.813 11.231H104.514C104.477 11.2172 104.481 11.1784 104.47 11.1502Z" fill="#0270CF"/>
<path d="M119.036 15.35C119.036 14.5333 119.038 13.7162 119.033 12.8995C119.033 12.7725 119.058 12.7298 119.195 12.7305C120.559 12.7361 121.923 12.7361 123.288 12.7305C123.411 12.7305 123.464 12.7492 123.458 12.8906C123.446 13.1782 123.446 13.4668 123.458 13.7543C123.464 13.8954 123.413 13.9166 123.288 13.9159C122.394 13.911 121.501 13.9159 120.607 13.9099C120.459 13.9099 120.413 13.9491 120.423 14.0951C120.435 14.2652 120.435 14.4359 120.423 14.606C120.416 14.7273 120.463 14.7496 120.574 14.7492C121.449 14.745 122.325 14.7492 123.201 14.7436C123.349 14.7436 123.389 14.7831 123.383 14.9288C123.371 15.211 123.374 15.4933 123.383 15.7755C123.387 15.9008 123.345 15.9332 123.223 15.9329C122.354 15.9283 121.484 15.935 120.613 15.9262C120.452 15.9244 120.41 15.9703 120.422 16.1227C120.435 16.2871 120.435 16.4522 120.422 16.6166C120.413 16.7499 120.471 16.7665 120.585 16.7662C121.472 16.7619 122.36 16.769 123.247 16.7591C123.42 16.7591 123.466 16.8025 123.457 16.9708C123.442 17.258 123.45 17.5466 123.454 17.8345C123.454 17.9255 123.429 17.9565 123.335 17.9562C121.942 17.9536 120.549 17.9536 119.156 17.9562C119.026 17.9562 119.034 17.8856 119.034 17.8002C119.036 16.9846 119.036 16.1678 119.036 15.35Z" fill="#0270CF"/>
<path d="M93.1798 6.00537C93.4444 6.00537 93.709 6.00855 93.9733 6.00537C94.0547 6.00537 94.0981 6.02936 94.1313 6.10522C94.5794 7.13352 95.0291 8.1617 95.4804 9.18976C95.7595 9.8248 96.0396 10.4574 96.3271 11.0878C96.3832 11.2117 96.3561 11.2328 96.2315 11.2314C95.7969 11.2262 95.3618 11.2262 94.9262 11.2314C94.8143 11.2314 94.7766 11.1909 94.7385 11.084C94.6355 10.7943 94.5035 10.5149 94.3889 10.2291C94.3564 10.1483 94.2947 10.1723 94.2421 10.1723C93.5248 10.1705 92.8079 10.1723 92.09 10.1684C91.9842 10.1684 91.9312 10.2037 91.8945 10.2972C91.7943 10.5516 91.6878 10.8038 91.5855 11.0575C91.5396 11.1711 91.4881 11.2413 91.3354 11.2339C90.9363 11.217 90.5363 11.2201 90.1358 11.2321C89.9735 11.2371 89.9753 11.1711 90.024 11.0628C90.1722 10.7343 90.3274 10.409 90.4724 10.0792C90.6319 9.7179 90.779 9.35099 90.9388 8.98937C91.0958 8.63374 91.2644 8.28377 91.4221 7.92779C91.5798 7.57181 91.7291 7.21195 91.8857 6.85527C91.9916 6.61501 92.1105 6.38005 92.2082 6.13662C92.2551 6.01949 92.326 5.99938 92.4368 6.0022C92.6862 6.00996 92.9332 6.00537 93.1798 6.00537ZM93.8953 9.02712C93.6698 8.48839 93.4575 7.97965 93.2444 7.47126C93.2218 7.41799 93.1967 7.36542 93.1611 7.28675C92.923 7.85546 92.6936 8.4016 92.4654 8.94809C92.4266 9.04088 92.4978 9.02641 92.5472 9.02641C92.9875 9.02712 93.4275 9.02712 93.8953 9.02712Z" fill="#0270CF"/>
<path d="M127.632 11.2272C127.11 11.2272 126.612 11.235 126.115 11.2219C125.977 11.2184 125.979 11.0529 125.934 10.9577C125.826 10.7259 125.737 10.4846 125.64 10.2475C125.615 10.1864 125.57 10.1677 125.502 10.1677C124.768 10.1706 124.033 10.1716 123.298 10.1677C123.198 10.1677 123.167 10.2228 123.137 10.2955C123.028 10.5661 122.915 10.8349 122.812 11.1069C122.776 11.1979 122.731 11.2314 122.632 11.23C122.215 11.2244 121.797 11.23 121.38 11.2261C121.334 11.2261 121.258 11.2568 121.247 11.1909C121.238 11.1341 121.223 11.0681 121.264 11.0053C121.511 10.6229 121.655 10.1939 121.839 9.78037C121.988 9.44662 122.141 9.11463 122.289 8.78018C122.447 8.4242 122.6 8.06646 122.756 7.71013C122.903 7.37532 123.052 7.04157 123.199 6.70711C123.276 6.53389 123.356 6.36243 123.425 6.18638C123.471 6.07031 123.519 5.99692 123.67 6.0001C124.175 6.01139 124.68 6.00786 125.187 6.0001C125.293 6.0001 125.344 6.03538 125.385 6.12711C125.883 7.2683 126.382 8.40903 126.884 9.54928C127.127 10.1025 127.376 10.6528 127.632 11.2272ZM124.408 7.2783C124.165 7.85725 123.941 8.39209 123.716 8.92588C123.68 9.01408 123.723 9.02537 123.795 9.02502C124.201 9.02502 124.607 9.0222 125.011 9.02502C125.123 9.02502 125.124 8.98621 125.087 8.89942C124.865 8.37622 124.647 7.85019 124.408 7.2783Z" fill="#0270CF"/>
<path d="M107.624 12.7348C107.216 13.1934 106.836 13.6238 106.455 14.0518C106.135 14.4106 105.816 14.7701 105.492 15.1246C105.388 15.2382 105.383 15.319 105.494 15.4422C106.225 16.2596 106.949 17.0813 107.674 17.9026C107.682 17.9192 107.688 17.9368 107.692 17.9548H107.467C107.027 17.9548 106.585 17.9456 106.145 17.9594C106.064 17.9659 105.983 17.9522 105.909 17.9195C105.835 17.8868 105.771 17.8361 105.721 17.7721C105.341 17.3222 104.949 16.8823 104.572 16.4293C104.488 16.3291 104.45 16.3199 104.367 16.418C103.969 16.8865 103.563 17.3483 103.168 17.819C103.089 17.9121 103.016 17.9601 102.89 17.958C102.361 17.9509 101.832 17.9548 101.291 17.9548C101.372 17.7604 101.538 17.6422 101.664 17.4941C101.967 17.1353 102.285 16.7902 102.598 16.4402C102.902 16.1001 103.206 15.7605 103.511 15.4213C103.582 15.3444 103.603 15.3007 103.511 15.2026C103.08 14.7419 102.664 14.2666 102.245 13.796C101.966 13.4827 101.687 13.1686 101.41 12.8537C101.387 12.8286 101.354 12.7933 101.358 12.769C101.369 12.7147 101.425 12.7337 101.462 12.7337C101.991 12.7337 102.521 12.7337 103.05 12.7337C103.154 12.7337 103.224 12.7835 103.282 12.8642C103.469 13.125 103.686 13.3582 103.904 13.5935C104.061 13.7625 104.205 13.9495 104.347 14.1333C104.449 14.2645 104.532 14.2391 104.616 14.1446C104.874 13.8563 105.125 13.5617 105.379 13.2689C105.517 13.1094 105.654 12.9495 105.79 12.7891C105.805 12.771 105.824 12.7566 105.845 12.747C105.866 12.7374 105.889 12.733 105.913 12.7341C106.469 12.7351 107.027 12.7348 107.624 12.7348Z" fill="#0270CF"/>
<path d="M127.039 12.7348C127.639 12.7348 128.133 12.7376 128.627 12.7326C128.749 12.7326 128.768 12.7588 128.713 12.8695C128.57 13.1627 128.431 13.458 128.304 13.7582C128.254 13.8789 128.189 13.9195 128.057 13.9181C127.376 13.911 126.694 13.9145 126.011 13.9149C125.906 13.91 125.8 13.9258 125.701 13.9615C125.514 14.0362 125.427 14.1488 125.43 14.3382C125.431 14.4234 125.46 14.5059 125.511 14.5738C125.562 14.6418 125.634 14.6915 125.716 14.7157C125.8 14.74 125.888 14.7513 125.976 14.7493C126.37 14.7475 126.764 14.7433 127.158 14.7493C127.475 14.7545 127.784 14.7912 128.078 14.9281C128.516 15.132 128.776 15.476 128.843 15.9442C128.899 16.3393 128.872 16.7362 128.666 17.0993C128.434 17.5138 128.081 17.7675 127.626 17.8828C127.429 17.9335 127.226 17.9587 127.023 17.958C126.135 17.9523 125.248 17.9523 124.36 17.958C124.226 17.958 124.19 17.9227 124.195 17.7908C124.205 17.5029 124.205 17.2149 124.195 16.9267C124.19 16.7962 124.225 16.7588 124.359 16.7599C125.229 16.7662 126.1 16.7668 126.97 16.7616C127.264 16.7616 127.499 16.6131 127.446 16.2695C127.422 16.1079 127.27 15.9555 127.071 15.9428C126.837 15.9273 126.601 15.9354 126.365 15.9301C125.969 15.9206 125.571 15.9527 125.175 15.875C124.624 15.766 124.165 15.319 124.062 14.7676C123.996 14.4183 124.012 14.0846 124.141 13.7515C124.366 13.1694 124.817 12.8819 125.403 12.7806C125.98 12.6808 126.564 12.7598 127.039 12.7348Z" fill="#0270CF"/>
<path d="M133.895 12.7377C133.722 13.1191 133.556 13.4786 133.396 13.8395C133.357 13.9263 133.29 13.9147 133.22 13.9147C132.52 13.9147 131.821 13.9147 131.121 13.9147C130.934 13.9147 130.744 13.9249 130.625 14.1101C130.592 14.1628 130.57 14.2226 130.564 14.2849C130.557 14.3472 130.565 14.4102 130.586 14.4689C130.608 14.5277 130.643 14.5805 130.689 14.6233C130.735 14.6661 130.79 14.6977 130.85 14.7155C130.935 14.7386 131.023 14.7494 131.111 14.7477C131.51 14.7477 131.91 14.7402 132.31 14.7494C132.691 14.7582 133.059 14.8164 133.393 15.0292C133.802 15.2892 133.971 15.6794 133.996 16.132C134.032 16.7367 133.847 17.2635 133.324 17.6233C133.023 17.8333 132.664 17.9466 132.297 17.9483C131.374 17.9546 130.452 17.9483 129.529 17.9574C129.378 17.9574 129.323 17.9282 129.332 17.7666C129.346 17.5025 129.346 17.2379 129.332 16.9738C129.324 16.8101 129.361 16.7554 129.539 16.7579C130.402 16.7685 131.268 16.7632 132.13 16.7621C132.33 16.7621 132.5 16.6521 132.564 16.4975C132.682 16.2104 132.509 15.9535 132.124 15.9366C131.725 15.9193 131.325 15.9331 130.924 15.9292C130.658 15.9264 130.393 15.9193 130.136 15.8262C129.683 15.6614 129.357 15.3732 129.229 14.8958C129.128 14.5201 129.123 14.138 129.257 13.7725C129.438 13.2825 129.813 12.9889 130.303 12.8365C130.505 12.7719 130.715 12.7381 130.926 12.7363C131.908 12.7381 132.889 12.7377 133.895 12.7377Z" fill="#0270CF"/>
<path d="M107.892 15.353C107.892 14.5367 107.896 13.7203 107.888 12.9039C107.888 12.7603 107.932 12.7317 108.065 12.7324C109.017 12.7381 109.97 12.7324 110.919 12.7363C111.463 12.7363 111.963 12.864 112.353 13.274C112.579 13.5118 112.706 13.7961 112.77 14.1207C112.886 14.7251 112.756 15.261 112.337 15.7083C112.046 16.0191 111.647 16.2064 111.221 16.2315C110.635 16.2749 110.047 16.2474 109.46 16.246C109.311 16.246 109.275 16.289 109.278 16.433C109.287 16.8916 109.278 17.3503 109.284 17.8089C109.286 17.9398 109.238 17.9631 109.121 17.9606C108.762 17.9539 108.404 17.9532 108.046 17.9606C107.923 17.9634 107.888 17.9278 107.889 17.8043C107.895 16.9858 107.892 16.1694 107.892 15.353ZM110.106 15.0666C110.347 15.0666 110.588 15.074 110.828 15.0666C111.248 15.051 111.489 14.7335 111.39 14.338C111.327 14.0819 111.12 13.9281 110.791 13.9214C110.327 13.9119 109.863 13.9214 109.399 13.9164C109.305 13.9164 109.279 13.9489 109.28 14.0389C109.285 14.338 109.288 14.6386 109.28 14.9367C109.276 15.0521 109.319 15.074 109.421 15.0712C109.648 15.0613 109.877 15.0666 110.106 15.0666Z" fill="#0270CF"/>
<path d="M121.124 10.0459C120.941 10.434 120.768 10.8026 120.598 11.1713C120.568 11.2369 120.516 11.2285 120.465 11.2281C120.172 11.2281 119.871 11.2652 119.586 11.214C118.925 11.0955 118.347 10.8259 117.958 10.2262C117.561 9.61298 117.533 8.94125 117.57 8.25046C117.594 7.65292 117.844 7.08674 118.27 6.66709C118.669 6.26631 119.182 6.09767 119.733 6.0391C120.382 5.96854 121.035 6.01794 121.687 6.00382C121.797 6.00135 121.84 6.0257 121.837 6.14494C121.828 6.45612 121.828 6.76752 121.837 7.07916C121.84 7.19911 121.811 7.23969 121.684 7.23722C121.225 7.22946 120.766 7.23122 120.308 7.23545C119.979 7.23792 119.665 7.29437 119.399 7.50958C119.028 7.80911 118.946 8.22471 118.953 8.66465C118.958 8.98958 119.012 9.3071 119.222 9.57735C119.519 9.96155 119.938 10.036 120.386 10.0448C120.623 10.0494 120.862 10.0459 121.124 10.0459Z" fill="#0270CF"/>
<path d="M116.819 8.61108C116.819 9.42253 116.814 10.234 116.824 11.0429C116.825 11.2059 116.775 11.2363 116.626 11.232C116.274 11.2215 115.921 11.2257 115.568 11.2303C115.462 11.2303 115.413 11.2162 115.413 11.0892C115.418 9.43852 115.418 7.78788 115.413 6.13724C115.413 6.02399 115.452 6.0007 115.554 6.00212C115.924 6.00741 116.295 6.00988 116.664 6.00212C116.792 5.99894 116.819 6.04198 116.819 6.16193C116.817 6.97796 116.819 7.7947 116.819 8.61108Z" fill="#0270CF"/>
<path d="M129.288 8.08918C129.284 8.05069 129.28 8.01219 129.276 7.96875C129.357 7.97758 129.361 8.03656 129.373 8.08847L129.288 8.08918Z" fill="#BFDBF2"/>
<path d="M104.47 11.1523C104.481 11.182 104.477 11.2194 104.514 11.235C104.497 11.3116 104.451 11.2675 104.432 11.2459C104.387 11.1972 104.415 11.1665 104.47 11.1523Z" fill="#BFDBF2"/>
<path d="M98.0308 7.59484L98.035 7.53125C98.044 7.55054 98.0526 7.56947 98.0611 7.58876L98.0465 7.59484H98.0308Z" fill="#BFDBF2"/>
<path d="M102.009 7.59407L102.026 7.53906V7.59729L102.017 7.59979L102.009 7.59407Z" fill="#BFDBF2"/>
<path d="M98.0973 14.7484C98.0693 14.7543 98.0558 14.7441 98.0578 14.7148L98.0973 14.7484Z" fill="#BFDBF2"/>
<path d="M115.641 14.9636C115.4 14.9636 115.16 14.9608 114.919 14.9636C114.835 14.9636 114.807 14.9396 114.808 14.8543C114.813 14.5784 114.813 14.3025 114.808 14.0266C114.808 13.9292 114.846 13.9098 114.933 13.9102C115.373 13.9137 115.815 13.908 116.254 13.9137C116.466 13.9165 116.668 13.9603 116.801 14.1451C116.857 14.2184 116.89 14.3058 116.899 14.3973C116.907 14.4888 116.89 14.5808 116.849 14.663C116.755 14.8655 116.574 14.9481 116.364 14.9569C116.123 14.9672 115.882 14.9594 115.641 14.9594L115.641 14.9636Z" fill="#FEFEFE"/>
<path d="M112.032 7.20241C112.267 7.20241 112.503 7.19394 112.738 7.20452C113.06 7.21899 113.279 7.4282 113.289 7.71256C113.299 7.99691 113.108 8.21671 112.782 8.23329C112.283 8.25869 111.783 8.24599 111.284 8.25093C111.213 8.25093 111.195 8.21142 111.196 8.15003C111.196 7.86779 111.198 7.58555 111.196 7.30331C111.196 7.21546 111.231 7.19429 111.312 7.19535C111.552 7.19888 111.793 7.19535 112.034 7.19535L112.032 7.20241Z" fill="#FEFEFE"/>
<path d="M93.8976 9.02677C93.4298 9.02677 92.9898 9.02677 92.5495 9.02677C92.5001 9.02677 92.4289 9.04124 92.4677 8.94845C92.6959 8.40196 92.9263 7.85477 93.1634 7.28711C93.1987 7.36614 93.2241 7.41835 93.2467 7.47162C93.4598 7.9786 93.6721 8.48734 93.8976 9.02677Z" fill="#FEFEFE"/>
<path d="M124.407 7.28125C124.646 7.85314 124.866 8.37917 125.087 8.90414C125.122 8.99093 125.122 9.03079 125.011 9.02973C124.606 9.02585 124.2 9.02762 123.795 9.02973C123.724 9.02973 123.678 9.0188 123.715 8.9306C123.941 8.39504 124.165 7.8602 124.407 7.28125Z" fill="#FEFEFE"/>
<path d="M110.107 15.0647C109.878 15.0647 109.648 15.0605 109.42 15.0669C109.318 15.0697 109.275 15.0478 109.279 14.9324C109.288 14.6333 109.284 14.3327 109.279 14.0346C109.279 13.9446 109.304 13.9111 109.398 13.9121C109.862 13.9164 110.326 13.9075 110.79 13.9171C111.121 13.9238 111.327 14.0776 111.39 14.3337C111.488 14.7292 111.248 15.0467 110.828 15.0623C110.587 15.0711 110.346 15.0623 110.105 15.0623L110.107 15.0647Z" fill="#FEFEFE"/>
</g>
<path d="M154.887 5.7168H147.19V18.2876H154.887V5.7168Z" fill="#FF5F00"/>
<path d="M147.981 12.0048C147.98 10.7943 148.254 9.59949 148.783 8.51074C149.312 7.42199 150.082 6.46783 151.034 5.72047C149.855 4.79364 148.438 4.2173 146.947 4.05732C145.455 3.89734 143.949 4.16018 142.6 4.81578C141.251 5.47139 140.114 6.49332 139.318 7.76478C138.522 9.03624 138.1 10.5059 138.1 12.0059C138.1 13.5058 138.522 14.9755 139.318 16.247C140.114 17.5184 141.251 18.5403 142.6 19.196C143.949 19.8516 145.455 20.1144 146.947 19.9544C148.438 19.7944 149.855 19.2181 151.034 18.2913C150.081 17.5437 149.312 16.5892 148.783 15.5C148.254 14.4108 147.979 13.2156 147.981 12.0048Z" fill="#EB001B"/>
<path d="M163.208 16.9574V16.6998H163.319V16.6465H163.055V16.6998H163.16V16.9574H163.208ZM163.721 16.9574V16.6465H163.641L163.548 16.8685L163.455 16.6465H163.375V16.9574H163.433V16.722L163.519 16.9241H163.579L163.666 16.722V16.9574H163.721Z" fill="#F79E1B"/>
<path d="M163.971 12.004C163.971 13.5041 163.548 14.9738 162.753 16.2453C161.957 17.5168 160.819 18.5387 159.47 19.1943C158.121 19.8498 156.614 20.1124 155.123 19.9522C153.631 19.792 152.215 19.2154 151.036 18.2883C151.987 17.5403 152.757 16.5858 153.286 15.497C153.815 14.4082 154.09 13.2135 154.09 12.0029C154.09 10.7923 153.815 9.59755 153.286 8.50874C152.757 7.41993 151.987 6.46551 151.036 5.71749C152.215 4.79037 153.631 4.21375 155.123 4.05354C156.614 3.89333 158.121 4.156 159.47 4.81151C160.819 5.46702 161.957 6.48894 162.753 7.76044C163.548 9.03194 163.971 10.5017 163.971 12.0018V12.004Z" fill="#F79E1B"/>
<defs>
<clipPath id="clip0_7951_91765">
<rect width="39.9035" height="12.1581" fill="white" transform="translate(0.599609 6)"/>
</clipPath>
<clipPath id="clip1_7951_91765">
<rect width="44" height="11.9628" fill="white" transform="translate(90 6)"/>
</clipPath>
</defs>
</svg>
