<svg width="60" height="24" viewBox="0 0 60 24" fill="none" xmlns="http://www.w3.org/2000/svg">
<g clip-path="url(#clip0_5706_223566)">
<path d="M2.47094 19.6043H2.90511L2.50166 21.2895C2.44178 21.5395 2.45307 21.7277 2.53583 21.8533C2.61827 21.979 2.77172 22.0418 2.99602 22.0418C3.21891 22.0418 3.40167 21.979 3.54446 21.8533C3.68741 21.7277 3.78882 21.5395 3.8487 21.2895L4.252 19.6043H4.69181L4.27849 21.3312C4.18867 21.7064 4.02864 21.9873 3.79948 22.1735C3.57017 22.36 3.26954 22.4531 2.89759 22.4531C2.52533 22.4531 2.26999 22.3602 2.13096 22.1744C1.99178 21.9889 1.96748 21.7077 2.05761 21.3312L2.47094 19.6043Z" fill="#696A6A"/>
<path d="M4.63379 22.3767L5.32439 19.4919L6.63664 21.1883C6.67175 21.2361 6.70717 21.2873 6.74213 21.3417C6.77708 21.3961 6.81282 21.4572 6.84949 21.5256L7.31016 19.6017H7.71659L7.02646 22.4844L5.68663 20.7577C5.65073 20.7112 5.61735 20.6619 5.58615 20.6101C5.55465 20.5582 5.52628 20.5038 5.50026 20.447L5.03834 22.3767H4.63379Z" fill="#696A6A"/>
<path d="M7.68066 22.3789L8.34494 19.6039H8.78444L8.12033 22.3789H7.68066Z" fill="#696A6A"/>
<path d="M8.75146 22.3789L9.41574 19.6039H10.9252L10.8335 19.9867H9.7637L9.59803 20.6786H10.6678L10.5731 21.0747H9.5032L9.19113 22.3789H8.75146Z" fill="#696A6A"/>
<path d="M10.7456 22.3789L11.4099 19.6039H11.8494L11.1853 22.3789H10.7456Z" fill="#696A6A"/>
<path d="M11.8174 22.3789L12.4817 19.6039H13.9911L13.8994 19.9867H12.8296L12.663 20.6823H13.7328L13.6381 21.0786H12.5683L12.3536 21.9751H13.4234L13.3268 22.3789H11.8174Z" fill="#696A6A"/>
<path d="M14.3687 21.9712H14.7383C14.9414 21.9712 15.0972 21.9573 15.2055 21.9295C15.3139 21.9018 15.4132 21.8549 15.5043 21.7892C15.628 21.6997 15.7313 21.5881 15.8143 21.4548C15.8972 21.3215 15.9601 21.1662 16.0024 20.9892C16.0446 20.8123 16.0562 20.6574 16.0371 20.5243C16.0178 20.3908 15.9679 20.2793 15.8872 20.1895C15.8266 20.124 15.7465 20.077 15.6465 20.0491C15.5463 20.0215 15.3833 20.0076 15.1566 20.0076H14.9977H14.8388L14.3687 21.9712ZM13.8315 22.3789L14.4958 19.6038H15.0888C15.4744 19.6038 15.7408 19.6235 15.8885 19.6634C16.0358 19.7033 16.1576 19.7701 16.2534 19.8635C16.3805 19.9861 16.4614 20.1435 16.4962 20.3353C16.5308 20.5275 16.5186 20.7468 16.4596 20.9932C16.4007 21.2395 16.3081 21.4579 16.1817 21.648C16.0557 21.8383 15.8994 21.9952 15.7135 22.119C15.5729 22.2126 15.4222 22.2792 15.262 22.3192C15.1013 22.3588 14.8618 22.3789 14.5427 22.3789H14.4243H13.8315Z" fill="#696A6A"/>
<path d="M18.6001 20.764H18.713C18.9567 20.764 19.1258 20.7366 19.2202 20.6823C19.3147 20.6281 19.3782 20.532 19.4111 20.3942C19.4465 20.2464 19.4282 20.142 19.3558 20.0815C19.2834 20.0209 19.131 19.9903 18.8982 19.9903H18.7854L18.6001 20.764ZM18.484 21.1333L18.1858 22.3789H17.7739L18.4384 19.6039H19.1034C19.3004 19.6039 19.4429 19.6149 19.5307 19.637C19.6182 19.659 19.6904 19.6955 19.7475 19.7461C19.8169 19.8105 19.8625 19.8974 19.8845 20.0066C19.9062 20.116 19.9015 20.2364 19.8702 20.3676C19.8385 20.4991 19.7856 20.6204 19.7109 20.7317C19.6363 20.8428 19.5489 20.9301 19.4489 20.9932C19.3677 21.0438 19.2782 21.0798 19.1801 21.1011C19.0818 21.1228 18.9343 21.1333 18.7373 21.1333H18.6506H18.484Z" fill="#696A6A"/>
<path d="M20.4133 21.2891H21.167L21.0412 20.6558C21.0352 20.6156 21.0296 20.5692 21.0247 20.5167C21.0202 20.4641 21.017 20.4057 21.015 20.3413C20.9858 20.4019 20.9565 20.4585 20.9272 20.511C20.8981 20.5634 20.8697 20.6116 20.8418 20.6558L20.4133 21.2891ZM21.3681 22.3789L21.2322 21.6643H20.1606L19.6755 22.3789H19.2139L21.2141 19.4941L21.8318 22.3789H21.3681Z" fill="#696A6A"/>
<path d="M22.4616 22.3789L22.7653 21.1088L22.2148 19.6039H22.6768L23.0185 20.546C23.0263 20.5701 23.0357 20.6016 23.0465 20.6408C23.0575 20.68 23.0681 20.7221 23.0782 20.7678C23.1058 20.7236 23.1341 20.6815 23.1625 20.6425C23.1909 20.6033 23.2196 20.5674 23.2486 20.5345L24.0531 19.6039H24.4929L23.2014 21.1088L22.8975 22.3789H22.4616Z" fill="#696A6A"/>
<path d="M26.6569 21.0058C26.657 20.9843 26.6633 20.9251 26.6755 20.8278C26.6849 20.7469 26.6923 20.6798 26.6976 20.6267C26.6714 20.69 26.6406 20.7533 26.6051 20.8163C26.5696 20.8795 26.5288 20.9439 26.4822 21.0097L25.4206 22.4883L25.0742 20.9795C25.0595 20.9174 25.0482 20.8574 25.0407 20.7994C25.0332 20.7412 25.028 20.6837 25.0255 20.6267C25.0104 20.685 24.9913 20.7458 24.968 20.8097C24.9446 20.8735 24.9167 20.9403 24.8839 21.0097L24.2667 22.3764H23.8623L25.1938 19.4837L25.5728 21.2353C25.5783 21.263 25.5863 21.3093 25.596 21.3737C25.6057 21.4381 25.6172 21.5177 25.6305 21.6124C25.6753 21.5328 25.7399 21.4318 25.8249 21.3093C25.8474 21.2764 25.8647 21.2511 25.8763 21.2334L27.0749 19.4837L27.0365 22.3764H26.628L26.6569 21.0058Z" fill="#696A6A"/>
<path d="M27.3872 22.3789L28.0516 19.6039H29.5611L29.4694 19.9867H28.3994L28.233 20.6823H29.3028L29.2081 21.0786H28.1382L27.9236 21.9751H28.9933L28.8965 22.3789H27.3872Z" fill="#696A6A"/>
<path d="M29.4014 22.3767L30.092 19.4919L31.4042 21.1883C31.4393 21.2361 31.4748 21.2873 31.5097 21.3417C31.5447 21.3961 31.5804 21.4572 31.6171 21.5256L32.0777 19.6017H32.4843L31.794 22.4844L30.4542 20.7577C30.4183 20.7112 30.3849 20.6619 30.3537 20.6101C30.3222 20.5582 30.2939 20.5038 30.2678 20.447L29.8059 22.3767H29.4014Z" fill="#696A6A"/>
<path d="M33.887 19.9867L33.3144 22.3789H32.8748L33.4472 19.9867H32.7285L32.8202 19.6039H34.6936L34.6021 19.9867H33.887Z" fill="#696A6A"/>
<path d="M34.3434 21.8238L34.7343 21.6572C34.7382 21.7809 34.7764 21.8754 34.8495 21.9404C34.9225 22.0056 35.028 22.0381 35.1663 22.0381C35.2967 22.0381 35.4095 22.0008 35.5042 21.9262C35.599 21.8517 35.6616 21.7519 35.6915 21.6268C35.7305 21.4636 35.6332 21.3183 35.4004 21.1909C35.3678 21.1719 35.3427 21.158 35.3255 21.149C35.063 21 34.8965 20.865 34.8263 20.7443C34.7562 20.6236 34.7418 20.4761 34.7835 20.3018C34.8376 20.0757 34.9564 19.8924 35.1396 19.7521C35.3228 19.6119 35.5357 19.5416 35.7785 19.5416C35.978 19.5416 36.1355 19.5811 36.2508 19.6601C36.3661 19.7393 36.4319 19.8526 36.4482 20.0004L36.0613 20.1824C36.0277 20.0953 35.9835 20.0315 35.9286 19.9909C35.8736 19.9504 35.804 19.9302 35.7205 19.9302C35.6023 19.9302 35.5007 19.962 35.4159 20.0249C35.3316 20.0882 35.2763 20.1728 35.2507 20.2791C35.2109 20.4459 35.3264 20.6012 35.5975 20.7453C35.6183 20.7565 35.6346 20.7656 35.6464 20.7719C35.8835 20.8981 36.0377 21.0218 36.1084 21.1424C36.1793 21.2633 36.1932 21.4139 36.1498 21.5945C36.087 21.8575 35.9564 22.0663 35.758 22.221C35.5595 22.3757 35.3228 22.4531 35.0484 22.4531C34.8178 22.4531 34.6421 22.3989 34.5211 22.2901C34.3998 22.1815 34.3405 22.0262 34.3434 21.8238Z" fill="#696A6A"/>
<path d="M37.5923 22.3789L38.2566 19.6039H38.6962L38.0319 22.3789H37.5923Z" fill="#696A6A"/>
<path d="M38.6636 22.3767L39.3542 19.4919L40.6664 21.1883C40.7015 21.2361 40.737 21.2873 40.7719 21.3417C40.8069 21.3961 40.8426 21.4572 40.8793 21.5256L41.3399 19.6017H41.7464L41.0562 22.4844L39.7164 20.7577C39.6805 20.7112 39.647 20.6619 39.6158 20.6101C39.5844 20.5582 39.5559 20.5038 39.5299 20.447L39.0681 22.3767H38.6636Z" fill="#696A6A"/>
<path d="M43.1497 19.9867L42.577 22.3789H42.1375L42.7099 19.9867H41.9912L42.0829 19.6039H43.9563L43.8647 19.9867H43.1497Z" fill="#696A6A"/>
<path d="M43.6284 22.3789L44.2927 19.6039H45.8021L45.7106 19.9867H44.6408L44.4742 20.6823H45.544L45.4491 21.0786H44.3794L44.1648 21.9751H45.2346L45.1378 22.3789H43.6284Z" fill="#696A6A"/>
<path d="M46.4629 20.7866H46.5426C46.7752 20.7866 46.9365 20.759 47.0261 20.7033C47.1158 20.6477 47.1778 20.5493 47.2114 20.4076C47.2481 20.2547 47.233 20.1469 47.1658 20.0845C47.0992 20.0217 46.9548 19.9905 46.7332 19.9905H46.6535L46.4629 20.7866ZM46.3513 21.1372L46.054 22.3789H45.6421L46.3065 19.6039H46.9199C47.0996 19.6039 47.2363 19.6159 47.3296 19.64C47.423 19.664 47.4982 19.7036 47.5551 19.7594C47.6228 19.8262 47.6667 19.913 47.6871 20.0192C47.707 20.1251 47.7018 20.2414 47.6717 20.3676C47.6186 20.59 47.5246 20.7642 47.3898 20.89C47.255 21.0156 47.0822 21.0913 46.8717 21.1163L47.5009 22.3789H47.0037L46.4012 21.1372H46.3513Z" fill="#696A6A"/>
<path d="M47.7612 22.3789L48.4255 19.6039H49.9349L49.8434 19.9867H48.7735L48.6078 20.6786H49.6777L49.5829 21.0747H48.5131L48.2009 22.3789H47.7612Z" fill="#696A6A"/>
<path d="M50.445 21.2891H51.1989L51.0731 20.6558C51.0669 20.6156 51.0615 20.5692 51.0566 20.5167C51.0521 20.4641 51.0489 20.4057 51.0469 20.3413C51.0176 20.4019 50.9883 20.4585 50.9591 20.511C50.93 20.5634 50.9014 20.6116 50.8735 20.6558L50.445 21.2891ZM51.4 22.3789L51.2641 21.6643H50.1925L49.7074 22.3789H49.2456L51.2458 19.4941L51.8637 22.3789H51.4Z" fill="#696A6A"/>
<path d="M54.7253 20.2791C54.6271 20.1705 54.5152 20.089 54.3894 20.0346C54.2641 19.9805 54.1249 19.9531 53.972 19.9531C53.6766 19.9531 53.4126 20.0504 53.1808 20.2449C52.9487 20.4396 52.7957 20.6917 52.7216 21.0014C52.6499 21.3009 52.6811 21.5478 52.815 21.7423C52.9488 21.937 53.1532 22.0345 53.4277 22.0345C53.588 22.0345 53.7473 22.0053 53.9059 21.9472C54.0645 21.889 54.2246 21.8012 54.3855 21.6835L54.2634 22.1936C54.1244 22.2807 53.98 22.3459 53.8307 22.3887C53.6811 22.4317 53.5252 22.4531 53.3626 22.4531C53.1557 22.4531 52.9727 22.4185 52.8139 22.3489C52.6549 22.2795 52.525 22.1773 52.4245 22.0418C52.3245 21.9092 52.2604 21.753 52.233 21.5727C52.2051 21.3928 52.2156 21.2009 52.2642 20.9973C52.3129 20.794 52.3943 20.6029 52.5079 20.4241C52.6214 20.2453 52.7617 20.0882 52.9281 19.9531C53.0952 19.8166 53.2739 19.7134 53.4642 19.6431C53.6546 19.5731 53.851 19.5379 54.0531 19.5379C54.212 19.5379 54.3578 19.5617 54.4905 19.6092C54.6233 19.6564 54.7459 19.728 54.8586 19.8244L54.7253 20.2791Z" fill="#696A6A"/>
<path d="M54.7676 22.3789L55.4319 19.6039H56.9413L56.8496 19.9867H55.78L55.6134 20.6823H56.6831L56.5883 21.0786H55.5185L55.3039 21.9751H56.3737L56.277 22.3789H54.7676Z" fill="#696A6A"/>
<path d="M46.749 17.1836H43.7266L47.9301 2.00235H50.9527L46.749 17.1836Z" fill="#66686C"/>
<path d="M45.1791 2.48443C44.9696 2.19556 44.6464 2.04979 44.2073 2.04979H27.587L26.7638 5.02318H29.788V5.02146H41.8836L41.0037 8.19893H28.9077L28.9088 8.19235H25.8859L23.377 17.25H26.4014L28.0852 11.1706H41.6819C42.1065 11.1706 42.5062 11.0258 42.8821 10.7361C43.2572 10.4461 43.504 10.0886 43.6224 9.66165L45.3059 3.581C45.4288 3.13977 45.3863 2.77362 45.1791 2.48443Z" fill="#66686C"/>
<path d="M21.6159 16.237C21.4489 16.8381 20.9016 17.2539 20.2776 17.2539H4.68317C4.25825 17.2539 3.94241 17.1091 3.73473 16.8197C3.5272 16.5301 3.48269 16.1718 3.60134 15.745L7.40641 2.04774H10.4317L7.03305 14.2815H19.1345L22.5331 2.04774H25.5578L21.6159 16.237Z" fill="#66686C"/>
<path d="M56.1722 2.03145L59.9989 9.64174L51.9546 17.25L56.1722 2.03145Z" fill="#27803B"/>
<path d="M53.4898 2.03145L57.3137 9.64174L49.2661 17.25L53.4898 2.03145Z" fill="#E9661C"/>
</g>
<defs>
<clipPath id="clip0_5706_223566">
<rect width="58" height="20.4906" fill="white" transform="translate(2 2)"/>
</clipPath>
</defs>
</svg>
