<svg width="147" height="30" viewBox="0 0 147 30" fill="none" xmlns="http://www.w3.org/2000/svg">
<path fill-rule="evenodd" clip-rule="evenodd" d="M62.065 17.655C62.3745 16.8601 62.5299 15.9377 62.5299 14.8892C62.5299 13.8402 62.3721 12.918 62.0559 12.1228C61.74 11.3272 61.3067 10.6583 60.7568 10.1163C60.2067 9.57422 59.563 9.16787 58.8258 8.89672C58.0881 8.62532 57.3041 8.48962 56.4733 8.48962C55.6657 8.48962 54.8959 8.62532 54.1648 8.89672C53.433 9.16787 52.7891 9.57422 52.2336 10.1163C51.6776 10.6583 51.2354 11.3272 50.908 12.1228C50.5802 12.918 50.4163 13.8402 50.4163 14.8892C50.4163 15.9377 50.5746 16.8601 50.8905 17.655C51.2067 18.4507 51.6393 19.1166 52.1896 19.6524C52.7395 20.1891 53.3834 20.5924 54.1209 20.8633C54.8583 21.1347 55.6421 21.2702 56.4733 21.2702C57.3274 21.2702 58.1264 21.1347 58.8695 20.8633C59.6126 20.5924 60.2536 20.1891 60.7919 19.6524C61.33 19.1166 61.7544 18.4507 62.065 17.655ZM53.4622 16.5151C53.3159 16.0319 53.243 15.4898 53.243 14.8892C53.243 14.2999 53.3159 13.7608 53.4622 13.2714C53.6085 12.7825 53.8194 12.3643 54.0946 12.0168C54.3691 11.669 54.7059 11.3979 55.104 11.2033C55.5017 11.0091 55.9581 10.9119 56.4733 10.9119C56.9763 10.9119 57.43 11.0061 57.8341 11.1947C58.2374 11.3828 58.5772 11.6512 58.8518 11.9987C59.1268 12.3468 59.3379 12.7647 59.4842 13.2536C59.6305 13.7428 59.7037 14.2878 59.7037 14.8892C59.7037 15.4898 59.6305 16.0319 59.4842 16.5151C59.3379 16.9985 59.1268 17.4138 58.8518 17.7613C58.5772 18.1093 58.2374 18.377 57.8341 18.5654C57.43 18.7545 56.9763 18.8489 56.4733 18.8489C55.9581 18.8489 55.5017 18.7545 55.104 18.5654C54.7059 18.377 54.3691 18.1093 54.0946 17.7613C53.8194 17.4138 53.6085 16.9985 53.4622 16.5151Z" fill="#1D1E20"/>
<path d="M69.4166 18.9193C69.8027 18.9193 70.1216 18.8872 70.3732 18.8219C70.6249 18.7574 70.8269 18.6692 70.9788 18.5565C71.1308 18.445 71.2364 18.3125 71.295 18.1593C71.3537 18.0063 71.3829 17.8352 71.3829 17.6466C71.3829 17.2462 71.1954 16.9128 70.821 16.6481C70.4464 16.3826 69.8027 16.0971 68.89 15.7901C68.4918 15.6492 68.0939 15.4868 67.696 15.3044C67.2981 15.122 66.9411 14.8921 66.6252 14.6151C66.3095 14.3382 66.0517 14.0023 65.8529 13.6071C65.6538 13.2126 65.5544 12.7326 65.5544 12.1668C65.5544 11.601 65.6597 11.0914 65.8703 10.6378C66.0812 10.184 66.3794 9.7984 66.7658 9.4798C67.152 9.16144 67.6199 8.91748 68.17 8.74619C68.7201 8.57564 69.3402 8.48962 70.031 8.48962C70.8502 8.48962 71.5584 8.57861 72.1555 8.75509C72.752 8.93182 73.2437 9.12659 73.6298 9.33866L72.8401 11.5128C72.5004 11.3361 72.1228 11.1799 71.7077 11.0442C71.2921 10.909 70.7918 10.8407 70.2068 10.8407C69.5511 10.8407 69.08 10.9327 68.7933 11.1151C68.5066 11.2978 68.363 11.5778 68.363 11.9545C68.363 12.1787 68.416 12.3675 68.5213 12.5203C68.6264 12.6735 68.7759 12.8119 68.9688 12.9358C69.162 13.0594 69.3844 13.1716 69.6363 13.2714C69.8874 13.3718 70.1656 13.4746 70.4702 13.5806C71.1018 13.8167 71.652 14.0493 72.1203 14.2792C72.5882 14.509 72.9776 14.7772 73.2879 15.0835C73.5977 15.3897 73.8289 15.7493 73.9814 16.1619C74.1331 16.5746 74.2094 17.0752 74.2094 17.6639C74.2094 18.8071 73.8112 19.694 73.0154 20.3243C72.2195 20.955 71.0198 21.2704 69.4166 21.2704C68.8782 21.2704 68.3924 21.2378 67.9594 21.173C67.5264 21.1078 67.1432 21.0285 66.8095 20.9343C66.4762 20.8401 66.1892 20.74 65.9491 20.634C65.7093 20.5277 65.5075 20.4278 65.3435 20.3332L66.1163 18.1415C66.4786 18.3422 66.9264 18.5216 67.4593 18.6803C67.9915 18.8397 68.6443 18.9193 69.4166 18.9193Z" fill="#1D1E20"/>
<path d="M86.2751 8.77307V11.1242H82.6059V21.0227H79.8673V11.1242H76.1978V8.77307H86.2751Z" fill="#1D1E20"/>
<path d="M89.3171 21.023H92.056V8.77307H89.3171V21.023Z" fill="#1D1E20"/>
<path d="M104.315 21.0227C103.531 19.6205 102.683 18.2361 101.77 16.8687C100.856 15.5016 99.8849 14.2114 98.8554 12.9975V21.0227H96.1516V8.77307H98.3811C98.767 9.16163 99.1944 9.63892 99.6628 10.2047C100.131 10.7705 100.607 11.3746 101.093 12.0167C101.579 12.6589 102.062 13.3248 102.542 14.0139C103.021 14.7032 103.472 15.3659 103.894 16.0024V8.77307H106.615V21.0227H104.315Z" fill="#1D1E20"/>
<path d="M116.644 10.8942C115.369 10.8942 114.447 11.2507 113.879 11.9635C113.312 12.6766 113.028 13.6515 113.028 14.8893C113.028 15.4897 113.098 16.0352 113.238 16.5241C113.379 17.0128 113.59 17.4339 113.87 17.7876C114.152 18.1414 114.502 18.4155 114.924 18.61C115.345 18.8043 115.836 18.9014 116.398 18.9014C116.702 18.9014 116.963 18.8955 117.18 18.8839C117.396 18.8722 117.586 18.8488 117.75 18.8132V14.5534H120.489V20.6163C120.161 20.7461 119.635 20.8842 118.909 21.0313C118.183 21.1784 117.288 21.2525 116.223 21.2525C115.31 21.2525 114.482 21.1109 113.739 20.8284C112.995 20.5451 112.361 20.1331 111.834 19.5908C111.308 19.049 110.901 18.3828 110.614 17.5934C110.327 16.8044 110.184 15.9027 110.184 14.8893C110.184 13.8638 110.342 12.9564 110.658 12.1667C110.974 11.3775 111.406 10.7081 111.957 10.1604C112.507 9.61241 113.153 9.19716 113.897 8.91439C114.64 8.63138 115.433 8.4895 116.276 8.4895C116.849 8.4895 117.367 8.52831 117.829 8.60468C118.291 8.68156 118.689 8.7698 119.023 8.87015C119.357 8.97001 119.632 9.07308 119.848 9.17936C120.065 9.2854 120.219 9.3682 120.314 9.42703L119.524 11.6363C119.149 11.436 118.719 11.2625 118.233 11.115C117.747 10.9677 117.218 10.8942 116.644 10.8942Z" fill="#1D1E20"/>
<path d="M124.321 21.0227V8.77307H132.537V11.0886H127.06V13.4923H131.923V15.7552H127.06V18.7072H132.941V21.0227H124.321Z" fill="#1D1E20"/>
<path fill-rule="evenodd" clip-rule="evenodd" d="M144.006 9.61225C143.035 8.95799 141.636 8.63123 139.811 8.63123C139.307 8.63123 138.737 8.65471 138.099 8.70216C137.461 8.74888 136.844 8.83193 136.247 8.94909V21.0225H138.985V16.5499H140.337C140.572 16.8332 140.807 17.1483 141.042 17.4963C141.277 17.8439 141.516 18.2116 141.756 18.6007C141.997 18.9897 142.231 19.3907 142.461 19.8029C142.689 20.2155 142.916 20.6218 143.139 21.0225H146.2C145.99 20.5749 145.762 20.1183 145.516 19.6524C145.271 19.1872 145.016 18.7396 144.753 18.3095C144.489 17.8794 144.223 17.4669 143.954 17.0719C143.685 16.6772 143.427 16.3267 143.181 16.02C143.919 15.714 144.484 15.2923 144.875 14.7564C145.268 14.2203 145.464 13.5215 145.464 12.6616C145.464 11.2826 144.977 10.2663 144.006 9.61225ZM139.433 10.9999C139.591 10.9883 139.769 10.9823 139.968 10.9823C140.846 10.9823 141.51 11.1091 141.961 11.362C142.412 11.6161 142.637 12.0427 142.637 12.6438C142.637 13.2687 142.415 13.7109 141.97 13.9697C141.525 14.2292 140.788 14.3582 139.758 14.3582H138.985V11.0352C139.126 11.0239 139.275 11.012 139.433 10.9999Z" fill="#1D1E20"/>
<path d="M44.0025 8.87207H46.7577V21.0786H44.0025V15.9001H39.3754V21.0786H36.6201V8.87207H39.3754V13.5395H44.0025V8.87207Z" fill="#1D1E20"/>
<path fill-rule="evenodd" clip-rule="evenodd" d="M17.8175 0.328857V9.05827L24.87 13.1829V3.92368L17.8175 0.328857ZM0.000244886 0.329286V14.0277H22.937L15.9584 10.1921L6.8675 10.1876V4.01584L0.000244886 0.329286ZM17.8175 25.8012V19.6826L8.65652 19.6762C8.66507 19.7169 1.56204 15.7792 1.56204 15.7792L24.8699 15.8893V29.5875L17.8175 25.8012ZM0.000244325 16.8495L0 25.8011L6.8675 29.3957V20.8765L0.000244325 16.8495Z" fill="#1D1E20"/>
</svg>